<svg data-v-423bf9ae="" xmlns="http://www.w3.org/2000/svg" viewBox="0 0 292.3469389244597 209" class="iconAboveSlogan"><!----><!----><!----><g data-v-423bf9ae="" id="8150e0d8-98c4-49a2-9517-52512e227d91" fill="white" transform="matrix(7.6530609130859375,0,0,7.6530609130859375,-3.826519727706909,98.39683532714844)"><path d="M3.92 8.96L5.04 8.96L5.04 8.96Q5.10 9.18 5.10 9.52L5.10 9.52L5.10 9.52Q5.10 9.84 5.04 10.08L5.04 10.08L4.48 10.08L4.48 10.08Q4.54 10.30 4.54 10.64L4.54 10.64L4.54 10.64Q4.54 10.96 4.48 11.20L4.48 11.20L1.68 11.20L1.68 11.20Q1.62 10.96 1.62 10.64L1.62 10.64L1.62 10.64Q1.62 10.30 1.68 10.08L1.68 10.08L1.12 10.08L1.12 10.08Q1.06 9.84 1.06 9.52L1.06 9.52L1.06 9.52Q1.06 9.18 1.12 8.96L1.12 8.96L0.56 8.96L0.56 8.96Q0.50 8.72 0.50 8.40L0.50 8.40L0.50 8.40Q0.50 8.06 0.56 7.84L0.56 7.84L0.56 7.84Q0.50 7.60 0.50 7.28L0.50 7.28L0.50 7.28Q0.50 6.94 0.56 6.72L0.56 6.72L0.56 6.72Q0.50 6.48 0.50 6.16L0.50 6.16L0.50 6.16Q0.50 5.82 0.56 5.60L0.56 5.60L1.12 5.60L1.12 5.60Q1.06 5.36 1.06 5.04L1.06 5.04L1.06 5.04Q1.06 4.70 1.12 4.48L1.12 4.48L1.68 4.48L1.68 4.48Q1.62 4.24 1.62 3.92L1.62 3.92L1.62 3.92Q1.62 3.58 1.68 3.36L1.68 3.36L4.48 3.36L4.48 3.36Q4.54 3.58 4.54 3.92L4.54 3.92L4.54 3.92Q4.54 4.24 4.48 4.48L4.48 4.48L5.04 4.48L5.04 4.48Q5.10 4.70 5.10 5.04L5.10 5.04L5.10 5.04Q5.10 5.36 5.04 5.60L5.04 5.60L3.92 5.60L3.92 5.60Q3.86 5.36 3.86 5.04L3.86 5.04L3.86 5.04Q3.86 4.70 3.92 4.48L3.92 4.48L2.24 4.48L2.24 4.48Q2.30 4.70 2.30 5.04L2.30 5.04L2.30 5.04Q2.30 5.36 2.24 5.60L2.24 5.60L1.68 5.60L1.68 5.60Q1.74 5.82 1.74 6.16L1.74 6.16L1.74 6.16Q1.74 6.48 1.68 6.72L1.68 6.72L1.68 6.72Q1.74 6.94 1.74 7.28L1.74 7.28L1.74 7.28Q1.74 7.60 1.68 7.84L1.68 7.84L1.68 7.84Q1.74 8.06 1.74 8.40L1.74 8.40L1.74 8.40Q1.74 8.72 1.68 8.96L1.68 8.96L2.24 8.96L2.24 8.96Q2.30 9.18 2.30 9.52L2.30 9.52L2.30 9.52Q2.30 9.84 2.24 10.08L2.24 10.08L3.92 10.08L3.92 10.08Q3.86 9.84 3.86 9.52L3.86 9.52L3.86 9.52Q3.86 9.18 3.92 8.96L3.92 8.96ZM9.52 8.96L10.64 8.96L10.64 8.96Q10.70 9.18 10.70 9.52L10.70 9.52L10.70 9.52Q10.70 9.84 10.64 10.08L10.64 10.08L10.08 10.08L10.08 10.08Q10.14 10.30 10.14 10.64L10.14 10.64L10.14 10.64Q10.14 10.96 10.08 11.20L10.08 11.20L7.28 11.20L7.28 11.20Q7.22 10.96 7.22 10.64L7.22 10.64L7.22 10.64Q7.22 10.30 7.28 10.08L7.28 10.08L6.72 10.08L6.72 10.08Q6.66 9.84 6.66 9.52L6.66 9.52L6.66 9.52Q6.66 9.18 6.72 8.96L6.72 8.96L6.16 8.96L6.16 8.96Q6.10 8.72 6.10 8.40L6.10 8.40L6.10 8.40Q6.10 8.06 6.16 7.84L6.16 7.84L6.16 7.84Q6.10 7.60 6.10 7.28L6.10 7.28L6.10 7.28Q6.10 6.94 6.16 6.72L6.16 6.72L6.16 6.72Q6.10 6.48 6.10 6.16L6.10 6.16L6.10 6.16Q6.10 5.82 6.16 5.60L6.16 5.60L6.72 5.60L6.72 5.60Q6.66 5.36 6.66 5.04L6.66 5.04L6.66 5.04Q6.66 4.70 6.72 4.48L6.72 4.48L7.28 4.48L7.28 4.48Q7.22 4.24 7.22 3.92L7.22 3.92L7.22 3.92Q7.22 3.58 7.28 3.36L7.28 3.36L10.08 3.36L10.08 3.36Q10.14 3.58 10.14 3.92L10.14 3.92L10.14 3.92Q10.14 4.24 10.08 4.48L10.08 4.48L10.64 4.48L10.64 4.48Q10.70 4.70 10.70 5.04L10.70 5.04L10.70 5.04Q10.70 5.36 10.64 5.60L10.64 5.60L9.52 5.60L9.52 5.60Q9.46 5.36 9.46 5.04L9.46 5.04L9.46 5.04Q9.46 4.70 9.52 4.48L9.52 4.48L7.84 4.48L7.84 4.48Q7.90 4.70 7.90 5.04L7.90 5.04L7.90 5.04Q7.90 5.36 7.84 5.60L7.84 5.60L7.28 5.60L7.28 5.60Q7.34 5.82 7.34 6.16L7.34 6.16L7.34 6.16Q7.34 6.48 7.28 6.72L7.28 6.72L7.28 6.72Q7.34 6.94 7.34 7.28L7.34 7.28L7.34 7.28Q7.34 7.60 7.28 7.84L7.28 7.84L7.28 7.84Q7.34 8.06 7.34 8.40L7.34 8.40L7.34 8.40Q7.34 8.72 7.28 8.96L7.28 8.96L7.84 8.96L7.84 8.96Q7.90 9.18 7.90 9.52L7.90 9.52L7.90 9.52Q7.90 9.84 7.84 10.08L7.84 10.08L9.52 10.08L9.52 10.08Q9.46 9.84 9.46 9.52L9.46 9.52L9.46 9.52Q9.46 9.18 9.52 8.96L9.52 8.96ZM15.12 8.96L16.24 8.96L16.24 8.96Q16.30 9.18 16.30 9.52L16.30 9.52L16.30 9.52Q16.30 9.84 16.24 10.08L16.24 10.08L15.68 10.08L15.68 10.08Q15.74 10.30 15.74 10.64L15.74 10.64L15.74 10.64Q15.74 10.96 15.68 11.20L15.68 11.20L12.88 11.20L12.88 11.20Q12.82 10.96 12.82 10.64L12.82 10.64L12.82 10.64Q12.82 10.30 12.88 10.08L12.88 10.08L12.32 10.08L12.32 10.08Q12.26 9.84 12.26 9.52L12.26 9.52L12.26 9.52Q12.26 9.18 12.32 8.96L12.32 8.96L11.76 8.96L11.76 8.96Q11.70 8.72 11.70 8.40L11.70 8.40L11.70 8.40Q11.70 8.06 11.76 7.84L11.76 7.84L11.76 7.84Q11.70 7.60 11.70 7.28L11.70 7.28L11.70 7.28Q11.70 6.94 11.76 6.72L11.76 6.72L11.76 6.72Q11.70 6.48 11.70 6.16L11.70 6.16L11.70 6.16Q11.70 5.82 11.76 5.60L11.76 5.60L12.32 5.60L12.32 5.60Q12.26 5.36 12.26 5.04L12.26 5.04L12.26 5.04Q12.26 4.70 12.32 4.48L12.32 4.48L12.88 4.48L12.88 4.48Q12.82 4.24 12.82 3.92L12.82 3.92L12.82 3.92Q12.82 3.58 12.88 3.36L12.88 3.36L15.68 3.36L15.68 3.36Q15.74 3.58 15.74 3.92L15.74 3.92L15.74 3.92Q15.74 4.24 15.68 4.48L15.68 4.48L16.24 4.48L16.24 4.48Q16.30 4.70 16.30 5.04L16.30 5.04L16.30 5.04Q16.30 5.36 16.24 5.60L16.24 5.60L15.12 5.60L15.12 5.60Q15.06 5.36 15.06 5.04L15.06 5.04L15.06 5.04Q15.06 4.70 15.12 4.48L15.12 4.48L13.44 4.48L13.44 4.48Q13.50 4.70 13.50 5.04L13.50 5.04L13.50 5.04Q13.50 5.36 13.44 5.60L13.44 5.60L12.88 5.60L12.88 5.60Q12.94 5.82 12.94 6.16L12.94 6.16L12.94 6.16Q12.94 6.48 12.88 6.72L12.88 6.72L12.88 6.72Q12.94 6.94 12.94 7.28L12.94 7.28L12.94 7.28Q12.94 7.60 12.88 7.84L12.88 7.84L12.88 7.84Q12.94 8.06 12.94 8.40L12.94 8.40L12.94 8.40Q12.94 8.72 12.88 8.96L12.88 8.96L13.44 8.96L13.44 8.96Q13.50 9.18 13.50 9.52L13.50 9.52L13.50 9.52Q13.50 9.84 13.44 10.08L13.44 10.08L15.12 10.08L15.12 10.08Q15.06 9.84 15.06 9.52L15.06 9.52L15.06 9.52Q15.06 9.18 15.12 8.96L15.12 8.96ZM21.90 8.40L21.90 8.40Q21.90 8.72 21.84 8.96L21.84 8.96L21.42 8.96L21.42 8.96Q21.48 9.18 21.48 9.52L21.48 9.52L21.48 9.52Q21.48 9.84 21.42 10.08L21.42 10.08L20.72 10.08L20.72 10.08Q20.78 10.30 20.78 10.64L20.78 10.64L20.78 10.64Q20.78 10.96 20.72 11.20L20.72 11.20L18.48 11.20L18.48 11.20Q18.42 10.96 18.42 10.64L18.42 10.64L18.42 10.64Q18.42 10.30 18.48 10.08L18.48 10.08L17.78 10.08L17.78 10.08Q17.72 9.84 17.72 9.52L17.72 9.52L17.72 9.52Q17.72 9.18 17.78 8.96L17.78 8.96L17.36 8.96L17.36 8.96Q17.30 8.72 17.30 8.40L17.30 8.40L17.30 8.40Q17.30 8.06 17.36 7.84L17.36 7.84L17.78 7.84L17.78 7.84Q17.72 7.60 17.72 7.28L17.72 7.28L17.72 7.28Q17.72 6.94 17.78 6.72L17.78 6.72L18.48 6.72L18.48 6.72Q18.42 6.48 18.42 6.16L18.42 6.16L18.42 6.16Q18.42 5.82 18.48 5.60L18.48 5.60L20.72 5.60L20.72 5.60Q20.78 5.82 20.78 6.16L20.78 6.16L20.78 6.16Q20.78 6.48 20.72 6.72L20.72 6.72L21.42 6.72L21.42 6.72Q21.48 6.94 21.48 7.28L21.48 7.28L21.48 7.28Q21.48 7.60 21.42 7.84L21.42 7.84L21.84 7.84L21.84 7.84Q21.90 8.06 21.90 8.40L21.90 8.40ZM20.30 8.96L20.72 8.96L20.72 8.96Q20.66 8.72 20.66 8.40L20.66 8.40L20.66 8.40Q20.66 8.06 20.72 7.84L20.72 7.84L20.30 7.84L20.30 7.84Q20.24 7.60 20.24 7.28L20.24 7.28L20.24 7.28Q20.24 6.94 20.30 6.72L20.30 6.72L18.90 6.72L18.90 6.72Q18.96 6.94 18.96 7.28L18.96 7.28L18.96 7.28Q18.96 7.60 18.90 7.84L18.90 7.84L18.48 7.84L18.48 7.84Q18.54 8.06 18.54 8.40L18.54 8.40L18.54 8.40Q18.54 8.72 18.48 8.96L18.48 8.96L18.90 8.96L18.90 8.96Q18.96 9.18 18.96 9.52L18.96 9.52L18.96 9.52Q18.96 9.84 18.90 10.08L18.90 10.08L20.30 10.08L20.30 10.08Q20.24 9.84 20.24 9.52L20.24 9.52L20.24 9.52Q20.24 9.18 20.30 8.96L20.30 8.96ZM27.44 4.48L27.44 4.48Q27.50 4.70 27.50 5.04L27.50 5.04L27.50 5.04Q27.50 5.36 27.44 5.60L27.44 5.60L27.44 5.60Q27.50 5.82 27.50 6.16L27.50 6.16L27.50 6.16Q27.50 6.48 27.44 6.72L27.44 6.72L27.44 6.72Q27.50 6.94 27.50 7.28L27.50 7.28L27.50 7.28Q27.50 7.60 27.44 7.84L27.44 7.84L27.44 7.84Q27.50 8.06 27.50 8.40L27.50 8.40L27.50 8.40Q27.50 8.72 27.44 8.96L27.44 8.96L27.44 8.96Q27.50 9.18 27.50 9.52L27.50 9.52L27.50 9.52Q27.50 9.84 27.44 10.08L27.44 10.08L27.44 10.08Q27.50 10.30 27.50 10.64L27.50 10.64L27.50 10.64Q27.50 10.96 27.44 11.20L27.44 11.20L26.32 11.20L26.32 11.20Q26.26 10.96 26.26 10.64L26.26 10.64L26.26 10.64Q26.26 10.30 26.32 10.08L26.32 10.08L25.90 10.08L25.90 10.08Q25.84 9.84 25.84 9.52L25.84 9.52L25.84 9.52Q25.84 9.18 25.90 8.96L25.90 8.96L26.32 8.96L26.32 8.96Q26.26 8.72 26.26 8.40L26.26 8.40L26.26 8.40Q26.26 8.06 26.32 7.84L26.32 7.84L25.90 7.84L25.90 7.84Q25.84 7.60 25.84 7.28L25.84 7.28L25.84 7.28Q25.84 6.94 25.90 6.72L25.90 6.72L26.32 6.72L26.32 6.72Q26.26 6.48 26.26 6.16L26.26 6.16L26.26 6.16Q26.26 5.82 26.32 5.60L26.32 5.60L26.32 5.60Q26.26 5.36 26.26 5.04L26.26 5.04L26.26 5.04Q26.26 4.70 26.32 4.48L26.32 4.48L26.32 4.48Q26.26 4.24 26.26 3.92L26.26 3.92L26.26 3.92Q26.26 3.58 26.32 3.36L26.32 3.36L27.44 3.36L27.44 3.36Q27.50 3.58 27.50 3.92L27.50 3.92L27.50 3.92Q27.50 4.24 27.44 4.48L27.44 4.48ZM25.68 6.16L25.68 6.16Q25.68 6.48 25.62 6.72L25.62 6.72L24.22 6.72L24.22 6.72Q24.28 6.94 24.28 7.28L24.28 7.28L24.28 7.28Q24.28 7.60 24.22 7.84L24.22 7.84L23.80 7.84L23.80 7.84Q23.86 8.06 23.86 8.40L23.86 8.40L23.86 8.40Q23.86 8.72 23.80 8.96L23.80 8.96L24.22 8.96L24.22 8.96Q24.28 9.18 24.28 9.52L24.28 9.52L24.28 9.52Q24.28 9.84 24.22 10.08L24.22 10.08L25.62 10.08L25.62 10.08Q25.68 10.30 25.68 10.64L25.68 10.64L25.68 10.64Q25.68 10.96 25.62 11.20L25.62 11.20L24.08 11.20L24.08 11.20Q24.02 10.96 24.02 10.64L24.02 10.64L24.02 10.64Q24.02 10.30 24.08 10.08L24.08 10.08L23.38 10.08L23.38 10.08Q23.32 9.84 23.32 9.52L23.32 9.52L23.32 9.52Q23.32 9.18 23.38 8.96L23.38 8.96L22.96 8.96L22.96 8.96Q22.90 8.72 22.90 8.40L22.90 8.40L22.90 8.40Q22.90 8.06 22.96 7.84L22.96 7.84L23.38 7.84L23.38 7.84Q23.32 7.60 23.32 7.28L23.32 7.28L23.32 7.28Q23.32 6.94 23.38 6.72L23.38 6.72L24.08 6.72L24.08 6.72Q24.02 6.48 24.02 6.16L24.02 6.16L24.02 6.16Q24.02 5.82 24.08 5.60L24.08 5.60L25.62 5.60L25.62 5.60Q25.68 5.82 25.68 6.16L25.68 6.16ZM33.10 7.28L33.10 7.28Q33.10 7.60 33.04 7.84L33.04 7.84L33.04 7.84Q33.10 8.06 33.10 8.40L33.10 8.40L33.10 8.40Q33.10 8.72 33.04 8.96L33.04 8.96L30.10 8.96L30.10 8.96Q30.16 9.18 30.16 9.52L30.16 9.52L30.16 9.52Q30.16 9.84 30.10 10.08L30.10 10.08L32.48 10.08L32.48 10.08Q32.54 10.30 32.54 10.64L32.54 10.64L32.54 10.64Q32.54 10.96 32.48 11.20L32.48 11.20L29.68 11.20L29.68 11.20Q29.62 10.96 29.62 10.64L29.62 10.64L29.62 10.64Q29.62 10.30 29.68 10.08L29.68 10.08L28.98 10.08L28.98 10.08Q28.92 9.84 28.92 9.52L28.92 9.52L28.92 9.52Q28.92 9.18 28.98 8.96L28.98 8.96L28.56 8.96L28.56 8.96Q28.50 8.72 28.50 8.40L28.50 8.40L28.50 8.40Q28.50 8.06 28.56 7.84L28.56 7.84L28.98 7.84L28.98 7.84Q28.92 7.60 28.92 7.28L28.92 7.28L28.92 7.28Q28.92 6.94 28.98 6.72L28.98 6.72L29.68 6.72L29.68 6.72Q29.62 6.48 29.62 6.16L29.62 6.16L29.62 6.16Q29.62 5.82 29.68 5.60L29.68 5.60L32.48 5.60L32.48 5.60Q32.54 5.82 32.54 6.16L32.54 6.16L32.54 6.16Q32.54 6.48 32.48 6.72L32.48 6.72L33.04 6.72L33.04 6.72Q33.10 6.94 33.10 7.28L33.10 7.28ZM31.92 7.84L31.92 7.84Q31.86 7.60 31.86 7.28L31.86 7.28L31.86 7.28Q31.86 6.94 31.92 6.72L31.92 6.72L30.10 6.72L30.10 6.72Q30.16 6.94 30.16 7.28L30.16 7.28L30.16 7.28Q30.16 7.60 30.10 7.84L30.10 7.84L31.92 7.84ZM38.64 6.72L38.64 6.72Q38.70 6.94 38.70 7.28L38.70 7.28L38.70 7.28Q38.70 7.60 38.64 7.84L38.64 7.84L37.52 7.84L37.52 7.84Q37.46 7.60 37.46 7.28L37.46 7.28L37.46 7.28Q37.46 6.94 37.52 6.72L37.52 6.72L36.54 6.72L36.54 6.72Q36.60 6.94 36.60 7.28L36.60 7.28L36.60 7.28Q36.60 7.60 36.54 7.84L36.54 7.84L36.12 7.84L36.12 7.84Q36.18 8.06 36.18 8.40L36.18 8.40L36.18 8.40Q36.18 8.72 36.12 8.96L36.12 8.96L36.12 8.96Q36.18 9.18 36.18 9.52L36.18 9.52L36.18 9.52Q36.18 9.84 36.12 10.08L36.12 10.08L36.96 10.08L36.96 10.08Q37.02 10.30 37.02 10.64L37.02 10.64L37.02 10.64Q37.02 10.96 36.96 11.20L36.96 11.20L34.16 11.20L34.16 11.20Q34.10 10.96 34.10 10.64L34.10 10.64L34.10 10.64Q34.10 10.30 34.16 10.08L34.16 10.08L35 10.08L35 10.08Q34.94 9.84 34.94 9.52L34.94 9.52L34.94 9.52Q34.94 9.18 35 8.96L35 8.96L35 8.96Q34.94 8.72 34.94 8.40L34.94 8.40L34.94 8.40Q34.94 8.06 35 7.84L35 7.84L35 7.84Q34.94 7.60 34.94 7.28L34.94 7.28L34.94 7.28Q34.94 6.94 35 6.72L35 6.72L34.16 6.72L34.16 6.72Q34.10 6.48 34.10 6.16L34.10 6.16L34.10 6.16Q34.10 5.82 34.16 5.60L34.16 5.60L35.56 5.60L35.56 5.60Q35.62 5.82 35.62 6.16L35.62 6.16L35.62 6.16Q35.62 6.48 35.56 6.72L35.56 6.72L36.12 6.72L36.12 6.72Q36.06 6.48 36.06 6.16L36.06 6.16L36.06 6.16Q36.06 5.82 36.12 5.60L36.12 5.60L38.22 5.60L38.22 5.60Q38.28 5.82 38.28 6.16L38.28 6.16L38.28 6.16Q38.28 6.48 38.22 6.72L38.22 6.72L38.64 6.72Z"></path></g><!----><g data-v-423bf9ae="" id="d30f6437-70ad-49d9-acc4-e83492755128" transform="matrix(1.1111111640930176,0,0,1.1111111640930176,90.79544067382812,0.4444417953491211)" stroke="none" fill="white"><path d="M28.413 51.051c-10.455 0-18.961-8.507-18.961-18.962v-1.576c0-10.455 8.506-18.961 18.961-18.961h4.26v-2.1h-4.26C16.8 9.452 7.351 18.9 7.351 30.514v1.576c0 11.613 9.448 21.062 21.062 21.062h6.384l2.11-2.1h-8.494zM30.487 92.648h-2.074c-10.455 0-18.961-8.505-18.961-18.961a1.05 1.05 0 0 0-2.101 0c0 11.613 9.448 21.062 21.062 21.062h2.074a6.26 6.26 0 0 1-.094-1.05c0-.359.036-.708.094-1.051zM71.587 51.057h-7.203l-2.077 2.101h9.28c10.456 0 18.962 8.506 18.962 18.962v1.568c0 10.456-8.506 18.961-18.962 18.961h-2.599c.057.343.094.691.094 1.051 0 .358-.037.708-.094 1.05h2.599c11.613 0 21.062-9.448 21.062-21.062V72.12c-.001-11.614-9.449-21.063-21.062-21.063z"></path><path d="M59.01 65.472l-3.145 3.126c-.881.872-.132 1.631-.132 1.631s.501.498 1.25 1.256c.753.758 4.014.015 4.014.015l2.004 2.014s9.42 9.482 10.231 10.294c.82.822 3.263.765 4.017.015.758-.748 2.019-2.002 2.019-2.002s1.26-1.246 2.013-2c.751-.752.825-3.197.012-4.015-.813-.821-10.237-10.297-10.237-10.297l-1.998-2.014s.763-3.26.013-4.013c-.749-.761-1.254-1.262-1.254-1.262s-.747-.755-1.631.116c-.879.879-3.145 3.134-3.145 3.134l-4.487-4.517-3.995 4.038 4.451 4.481zM34.888 33.135l-2.993-5.023-4.01-4.029-7.762-4.286-1.261 1.245-1.26 1.255 4.243 7.792 4.005 4.029 5.009 3.022 9.956 10.02 4.026-4.008z"></path><path d="M72.107 43.248a1.63 1.63 0 0 0 .326-.473l9.354-20.618a1.632 1.632 0 0 0-.328-1.826l-.002-.002a1.635 1.635 0 0 0-1.821-.337s-21.378 9.771-21.476 9.902L44.841 43.152l-4.026 4.008-3.908 3.891-2.11 2.1L18.021 69.85a1.63 1.63 0 0 0-.007 2.303l4.019 4.043c.005.004.006.011.012.016.004.005.009.005.016.013l3.644 3.661c.004.005.007.012.012.017l.002.003c.005.005.012.007.015.009l3.912 3.931.002.003.024.023a1.629 1.629 0 0 0 2.516-.259l22.372-22.62 3.995-4.038 3.754-3.796 2.077-2.101 7.721-7.81zm-3.279-14.843c.184 1.167.647 2.187 1.467 3.006.896.896 2.008 1.395 2.949 1.68l-3.484 7.681-8.674-8.902 7.742-3.465zM21.472 71.009l16.86-16.779 13.002-12.939 6.612-6.581c.169.254.364.506.608.751a4.7 4.7 0 0 0 1.032.774L52.942 42.9l-12.95 12.993-16.793 16.848-1.727-1.732zm4.025 4.045l16.801-16.856 12.95-12.993 6.586-6.608c.167.257.361.509.606.753l.012.012c.252.251.508.446.768.62l-6.587 6.607L43.681 59.58 26.873 76.439l-1.376-1.385zm5.299 5.328l-1.623-1.633 16.813-16.864 12.951-12.99 6.58-6.6c.174.259.364.521.613.77l.012.012c.282.283.575.503.87.689l-6.565 6.638-12.9 13.042-16.751 16.936zM68.988 92.648c-.502-2.979-3.086-5.251-6.207-5.251h-3.417V100h3.417a6.298 6.298 0 0 0 6.207-5.251c.057-.342.094-.691.094-1.05 0-.359-.037-.708-.094-1.051zM52.021 87.397h4.191V100h-4.191zM45.586 87.397h1.118V100h-1.118zM43.486 87.397h-6.792a6.298 6.298 0 0 0-6.207 5.251 6.271 6.271 0 0 0-.094 1.051c0 .358.037.708.094 1.05A6.298 6.298 0 0 0 36.694 100h6.792V87.397zM48.804 87.397h1.118V100h-1.118zM42.153.052a10.504 10.504 0 0 0-9.399 9.399h9.399V.052zM32.753 11.552a10.504 10.504 0 0 0 9.399 9.399v-9.399h-9.399zM44.253 21.003h12.019c5.799 0 10.501-4.702 10.501-10.502C66.773 4.702 62.071 0 56.272 0H44.253v21.003z"></path></g><!----><g data-v-423bf9ae="" id="09140098-ee83-4f8d-89d9-7d5dda333cbf" fill="white" transform="matrix(1.2703372240066528,0,0,1.2703372240066528,37.23472595214844,219.43544006347656)"><path d="M3.92 8.96L5.04 8.96L5.04 8.96Q5.10 9.18 5.10 9.52L5.10 9.52L5.10 9.52Q5.10 9.84 5.04 10.08L5.04 10.08L4.48 10.08L4.48 10.08Q4.54 10.30 4.54 10.64L4.54 10.64L4.54 10.64Q4.54 10.96 4.48 11.20L4.48 11.20L1.68 11.20L1.68 11.20Q1.62 10.96 1.62 10.64L1.62 10.64L1.62 10.64Q1.62 10.30 1.68 10.08L1.68 10.08L1.12 10.08L1.12 10.08Q1.06 9.84 1.06 9.52L1.06 9.52L1.06 9.52Q1.06 9.18 1.12 8.96L1.12 8.96L0.56 8.96L0.56 8.96Q0.50 8.72 0.50 8.40L0.50 8.40L0.50 8.40Q0.50 8.06 0.56 7.84L0.56 7.84L0.56 7.84Q0.50 7.60 0.50 7.28L0.50 7.28L0.50 7.28Q0.50 6.94 0.56 6.72L0.56 6.72L0.56 6.72Q0.50 6.48 0.50 6.16L0.50 6.16L0.50 6.16Q0.50 5.82 0.56 5.60L0.56 5.60L1.12 5.60L1.12 5.60Q1.06 5.36 1.06 5.04L1.06 5.04L1.06 5.04Q1.06 4.70 1.12 4.48L1.12 4.48L1.68 4.48L1.68 4.48Q1.62 4.24 1.62 3.92L1.62 3.92L1.62 3.92Q1.62 3.58 1.68 3.36L1.68 3.36L4.48 3.36L4.48 3.36Q4.54 3.58 4.54 3.92L4.54 3.92L4.54 3.92Q4.54 4.24 4.48 4.48L4.48 4.48L5.04 4.48L5.04 4.48Q5.10 4.70 5.10 5.04L5.10 5.04L5.10 5.04Q5.10 5.36 5.04 5.60L5.04 5.60L3.92 5.60L3.92 5.60Q3.86 5.36 3.86 5.04L3.86 5.04L3.86 5.04Q3.86 4.70 3.92 4.48L3.92 4.48L2.24 4.48L2.24 4.48Q2.30 4.70 2.30 5.04L2.30 5.04L2.30 5.04Q2.30 5.36 2.24 5.60L2.24 5.60L1.68 5.60L1.68 5.60Q1.74 5.82 1.74 6.16L1.74 6.16L1.74 6.16Q1.74 6.48 1.68 6.72L1.68 6.72L1.68 6.72Q1.74 6.94 1.74 7.28L1.74 7.28L1.74 7.28Q1.74 7.60 1.68 7.84L1.68 7.84L1.68 7.84Q1.74 8.06 1.74 8.40L1.74 8.40L1.74 8.40Q1.74 8.72 1.68 8.96L1.68 8.96L2.24 8.96L2.24 8.96Q2.30 9.18 2.30 9.52L2.30 9.52L2.30 9.52Q2.30 9.84 2.24 10.08L2.24 10.08L3.92 10.08L3.92 10.08Q3.86 9.84 3.86 9.52L3.86 9.52L3.86 9.52Q3.86 9.18 3.92 8.96L3.92 8.96ZM7.34 6.16L7.34 6.16Q7.34 6.48 7.28 6.72L7.28 6.72L7.70 6.72L7.70 6.72Q7.76 6.94 7.76 7.28L7.76 7.28L7.76 7.28Q7.76 7.60 7.70 7.84L7.70 7.84L7.28 7.84L7.28 7.84Q7.34 8.06 7.34 8.40L7.34 8.40L7.34 8.40Q7.34 8.72 7.28 8.96L7.28 8.96L7.28 8.96Q7.34 9.18 7.34 9.52L7.34 9.52L7.34 9.52Q7.34 9.84 7.28 10.08L7.28 10.08L7.28 10.08Q7.34 10.30 7.34 10.64L7.34 10.64L7.34 10.64Q7.34 10.96 7.28 11.20L7.28 11.20L6.16 11.20L6.16 11.20Q6.10 10.96 6.10 10.64L6.10 10.64L6.10 10.64Q6.10 10.30 6.16 10.08L6.16 10.08L6.16 10.08Q6.10 9.84 6.10 9.52L6.10 9.52L6.10 9.52Q6.10 9.18 6.16 8.96L6.16 8.96L6.16 8.96Q6.10 8.72 6.10 8.40L6.10 8.40L6.10 8.40Q6.10 8.06 6.16 7.84L6.16 7.84L6.16 7.84Q6.10 7.60 6.10 7.28L6.10 7.28L6.10 7.28Q6.10 6.94 6.16 6.72L6.16 6.72L6.16 6.72Q6.10 6.48 6.10 6.16L6.10 6.16L6.10 6.16Q6.10 5.82 6.16 5.60L6.16 5.60L6.16 5.60Q6.10 5.36 6.10 5.04L6.10 5.04L6.10 5.04Q6.10 4.70 6.16 4.48L6.16 4.48L6.16 4.48Q6.10 4.24 6.10 3.92L6.10 3.92L6.10 3.92Q6.10 3.58 6.16 3.36L6.16 3.36L7.28 3.36L7.28 3.36Q7.34 3.58 7.34 3.92L7.34 3.92L7.34 3.92Q7.34 4.24 7.28 4.48L7.28 4.48L7.28 4.48Q7.34 4.70 7.34 5.04L7.34 5.04L7.34 5.04Q7.34 5.36 7.28 5.60L7.28 5.60L7.28 5.60Q7.34 5.82 7.34 6.16L7.34 6.16ZM10.64 7.84L10.64 7.84Q10.70 8.06 10.70 8.40L10.70 8.40L10.70 8.40Q10.70 8.72 10.64 8.96L10.64 8.96L10.64 8.96Q10.70 9.18 10.70 9.52L10.70 9.52L10.70 9.52Q10.70 9.84 10.64 10.08L10.64 10.08L10.64 10.08Q10.70 10.30 10.70 10.64L10.70 10.64L10.70 10.64Q10.70 10.96 10.64 11.20L10.64 11.20L9.52 11.20L9.52 11.20Q9.46 10.96 9.46 10.64L9.46 10.64L9.46 10.64Q9.46 10.30 9.52 10.08L9.52 10.08L9.52 10.08Q9.46 9.84 9.46 9.52L9.46 9.52L9.46 9.52Q9.46 9.18 9.52 8.96L9.52 8.96L9.52 8.96Q9.46 8.72 9.46 8.40L9.46 8.40L9.46 8.40Q9.46 8.06 9.52 7.84L9.52 7.84L9.52 7.84Q9.46 7.60 9.46 7.28L9.46 7.28L9.46 7.28Q9.46 6.94 9.52 6.72L9.52 6.72L7.70 6.72L7.70 6.72Q7.64 6.48 7.64 6.16L7.64 6.16L7.64 6.16Q7.64 5.82 7.70 5.60L7.70 5.60L9.94 5.60L9.94 5.60Q10.00 5.82 10.00 6.16L10.00 6.16L10.00 6.16Q10.00 6.48 9.94 6.72L9.94 6.72L10.64 6.72L10.64 6.72Q10.70 6.94 10.70 7.28L10.70 7.28L10.70 7.28Q10.70 7.60 10.64 7.84L10.64 7.84ZM16.24 10.08L16.24 10.08Q16.30 10.30 16.30 10.64L16.30 10.64L16.30 10.64Q16.30 10.96 16.24 11.20L16.24 11.20L15.12 11.20L15.12 11.20Q15.06 10.96 15.06 10.64L15.06 10.64L15.06 10.64Q15.06 10.30 15.12 10.08L15.12 10.08L14.56 10.08L14.56 10.08Q14.50 9.84 14.50 9.52L14.50 9.52L14.50 9.52Q14.50 9.18 14.56 8.96L14.56 8.96L12.88 8.96L12.88 8.96Q12.94 9.18 12.94 9.52L12.94 9.52L12.94 9.52Q12.94 9.84 12.88 10.08L12.88 10.08L14.56 10.08L14.56 10.08Q14.62 10.30 14.62 10.64L14.62 10.64L14.62 10.64Q14.62 10.96 14.56 11.20L14.56 11.20L12.32 11.20L12.32 11.20Q12.26 10.96 12.26 10.64L12.26 10.64L12.26 10.64Q12.26 10.30 12.32 10.08L12.32 10.08L11.76 10.08L11.76 10.08Q11.70 9.84 11.70 9.52L11.70 9.52L11.70 9.52Q11.70 9.18 11.76 8.96L11.76 8.96L12.32 8.96L12.32 8.96Q12.26 8.72 12.26 8.40L12.26 8.40L12.26 8.40Q12.26 8.06 12.32 7.84L12.32 7.84L14.56 7.84L14.56 7.84Q14.50 7.60 14.50 7.28L14.50 7.28L14.50 7.28Q14.50 6.94 14.56 6.72L14.56 6.72L12.60 6.72L12.60 6.72Q12.54 6.48 12.54 6.16L12.54 6.16L12.54 6.16Q12.54 5.82 12.60 5.60L12.60 5.60L15.12 5.60L15.12 5.60Q15.18 5.82 15.18 6.16L15.18 6.16L15.18 6.16Q15.18 6.48 15.12 6.72L15.12 6.72L15.68 6.72L15.68 6.72Q15.74 6.94 15.74 7.28L15.74 7.28L15.74 7.28Q15.74 7.60 15.68 7.84L15.68 7.84L15.68 7.84Q15.74 8.06 15.74 8.40L15.74 8.40L15.74 8.40Q15.74 8.72 15.68 8.96L15.68 8.96L15.68 8.96Q15.74 9.18 15.74 9.52L15.74 9.52L15.74 9.52Q15.74 9.84 15.68 10.08L15.68 10.08L16.24 10.08ZM21.90 8.40L21.90 8.40Q21.90 8.72 21.84 8.96L21.84 8.96L21.42 8.96L21.42 8.96Q21.48 9.18 21.48 9.52L21.48 9.52L21.48 9.52Q21.48 9.84 21.42 10.08L21.42 10.08L20.72 10.08L20.72 10.08Q20.78 10.30 20.78 10.64L20.78 10.64L20.78 10.64Q20.78 10.96 20.72 11.20L20.72 11.20L18.48 11.20L18.48 11.20Q18.42 10.96 18.42 10.64L18.42 10.64L18.42 10.64Q18.42 10.30 18.48 10.08L18.48 10.08L17.78 10.08L17.78 10.08Q17.72 9.84 17.72 9.52L17.72 9.52L17.72 9.52Q17.72 9.18 17.78 8.96L17.78 8.96L17.36 8.96L17.36 8.96Q17.30 8.72 17.30 8.40L17.30 8.40L17.30 8.40Q17.30 8.06 17.36 7.84L17.36 7.84L17.78 7.84L17.78 7.84Q17.72 7.60 17.72 7.28L17.72 7.28L17.72 7.28Q17.72 6.94 17.78 6.72L17.78 6.72L18.48 6.72L18.48 6.72Q18.42 6.48 18.42 6.16L18.42 6.16L18.42 6.16Q18.42 5.82 18.48 5.60L18.48 5.60L20.72 5.60L20.72 5.60Q20.78 5.82 20.78 6.16L20.78 6.16L20.78 6.16Q20.78 6.48 20.72 6.72L20.72 6.72L21.42 6.72L21.42 6.72Q21.48 6.94 21.48 7.28L21.48 7.28L21.48 7.28Q21.48 7.60 21.42 7.84L21.42 7.84L21.84 7.84L21.84 7.84Q21.90 8.06 21.90 8.40L21.90 8.40ZM20.30 8.96L20.72 8.96L20.72 8.96Q20.66 8.72 20.66 8.40L20.66 8.40L20.66 8.40Q20.66 8.06 20.72 7.84L20.72 7.84L20.30 7.84L20.30 7.84Q20.24 7.60 20.24 7.28L20.24 7.28L20.24 7.28Q20.24 6.94 20.30 6.72L20.30 6.72L18.90 6.72L18.90 6.72Q18.96 6.94 18.96 7.28L18.96 7.28L18.96 7.28Q18.96 7.60 18.90 7.84L18.90 7.84L18.48 7.84L18.48 7.84Q18.54 8.06 18.54 8.40L18.54 8.40L18.54 8.40Q18.54 8.72 18.48 8.96L18.48 8.96L18.90 8.96L18.90 8.96Q18.96 9.18 18.96 9.52L18.96 9.52L18.96 9.52Q18.96 9.84 18.90 10.08L18.90 10.08L20.30 10.08L20.30 10.08Q20.24 9.84 20.24 9.52L20.24 9.52L20.24 9.52Q20.24 9.18 20.30 8.96L20.30 8.96ZM27.22 9.52L27.22 9.52Q27.22 9.84 27.16 10.08L27.16 10.08L26.60 10.08L26.60 10.08Q26.66 10.30 26.66 10.64L26.66 10.64L26.66 10.64Q26.66 10.96 26.60 11.20L26.60 11.20L23.52 11.20L23.52 11.20Q23.46 10.96 23.46 10.64L23.46 10.64L23.46 10.64Q23.46 10.30 23.52 10.08L23.52 10.08L26.04 10.08L26.04 10.08Q25.98 9.84 25.98 9.52L25.98 9.52L25.98 9.52Q25.98 9.18 26.04 8.96L26.04 8.96L23.80 8.96L23.80 8.96Q23.74 8.72 23.74 8.40L23.74 8.40L23.74 8.40Q23.74 8.06 23.80 7.84L23.80 7.84L23.24 7.84L23.24 7.84Q23.18 7.60 23.18 7.28L23.18 7.28L23.18 7.28Q23.18 6.94 23.24 6.72L23.24 6.72L23.80 6.72L23.80 6.72Q23.74 6.48 23.74 6.16L23.74 6.16L23.74 6.16Q23.74 5.82 23.80 5.60L23.80 5.60L26.88 5.60L26.88 5.60Q26.94 5.82 26.94 6.16L26.94 6.16L26.94 6.16Q26.94 6.48 26.88 6.72L26.88 6.72L24.36 6.72L24.36 6.72Q24.42 6.94 24.42 7.28L24.42 7.28L24.42 7.28Q24.42 7.60 24.36 7.84L24.36 7.84L26.60 7.84L26.60 7.84Q26.66 8.06 26.66 8.40L26.66 8.40L26.66 8.40Q26.66 8.72 26.60 8.96L26.60 8.96L27.16 8.96L27.16 8.96Q27.22 9.18 27.22 9.52L27.22 9.52ZM37.52 8.96L38.64 8.96L38.64 8.96Q38.70 9.18 38.70 9.52L38.70 9.52L38.70 9.52Q38.70 9.84 38.64 10.08L38.64 10.08L38.08 10.08L38.08 10.08Q38.14 10.30 38.14 10.64L38.14 10.64L38.14 10.64Q38.14 10.96 38.08 11.20L38.08 11.20L35.28 11.20L35.28 11.20Q35.22 10.96 35.22 10.64L35.22 10.64L35.22 10.64Q35.22 10.30 35.28 10.08L35.28 10.08L34.72 10.08L34.72 10.08Q34.66 9.84 34.66 9.52L34.66 9.52L34.66 9.52Q34.66 9.18 34.72 8.96L34.72 8.96L34.16 8.96L34.16 8.96Q34.10 8.72 34.10 8.40L34.10 8.40L34.10 8.40Q34.10 8.06 34.16 7.84L34.16 7.84L34.16 7.84Q34.10 7.60 34.10 7.28L34.10 7.28L34.10 7.28Q34.10 6.94 34.16 6.72L34.16 6.72L34.16 6.72Q34.10 6.48 34.10 6.16L34.10 6.16L34.10 6.16Q34.10 5.82 34.16 5.60L34.16 5.60L34.72 5.60L34.72 5.60Q34.66 5.36 34.66 5.04L34.66 5.04L34.66 5.04Q34.66 4.70 34.72 4.48L34.72 4.48L35.28 4.48L35.28 4.48Q35.22 4.24 35.22 3.92L35.22 3.92L35.22 3.92Q35.22 3.58 35.28 3.36L35.28 3.36L38.08 3.36L38.08 3.36Q38.14 3.58 38.14 3.92L38.14 3.92L38.14 3.92Q38.14 4.24 38.08 4.48L38.08 4.48L38.64 4.48L38.64 4.48Q38.70 4.70 38.70 5.04L38.70 5.04L38.70 5.04Q38.70 5.36 38.64 5.60L38.64 5.60L37.52 5.60L37.52 5.60Q37.46 5.36 37.46 5.04L37.46 5.04L37.46 5.04Q37.46 4.70 37.52 4.48L37.52 4.48L35.84 4.48L35.84 4.48Q35.90 4.70 35.90 5.04L35.90 5.04L35.90 5.04Q35.90 5.36 35.84 5.60L35.84 5.60L35.28 5.60L35.28 5.60Q35.34 5.82 35.34 6.16L35.34 6.16L35.34 6.16Q35.34 6.48 35.28 6.72L35.28 6.72L35.28 6.72Q35.34 6.94 35.34 7.28L35.34 7.28L35.34 7.28Q35.34 7.60 35.28 7.84L35.28 7.84L35.28 7.84Q35.34 8.06 35.34 8.40L35.34 8.40L35.34 8.40Q35.34 8.72 35.28 8.96L35.28 8.96L35.84 8.96L35.84 8.96Q35.90 9.18 35.90 9.52L35.90 9.52L35.90 9.52Q35.90 9.84 35.84 10.08L35.84 10.08L37.52 10.08L37.52 10.08Q37.46 9.84 37.46 9.52L37.46 9.52L37.46 9.52Q37.46 9.18 37.52 8.96L37.52 8.96ZM44.30 8.40L44.30 8.40Q44.30 8.72 44.24 8.96L44.24 8.96L43.82 8.96L43.82 8.96Q43.88 9.18 43.88 9.52L43.88 9.52L43.88 9.52Q43.88 9.84 43.82 10.08L43.82 10.08L43.12 10.08L43.12 10.08Q43.18 10.30 43.18 10.64L43.18 10.64L43.18 10.64Q43.18 10.96 43.12 11.20L43.12 11.20L40.88 11.20L40.88 11.20Q40.82 10.96 40.82 10.64L40.82 10.64L40.82 10.64Q40.82 10.30 40.88 10.08L40.88 10.08L40.18 10.08L40.18 10.08Q40.12 9.84 40.12 9.52L40.12 9.52L40.12 9.52Q40.12 9.18 40.18 8.96L40.18 8.96L39.76 8.96L39.76 8.96Q39.70 8.72 39.70 8.40L39.70 8.40L39.70 8.40Q39.70 8.06 39.76 7.84L39.76 7.84L40.18 7.84L40.18 7.84Q40.12 7.60 40.12 7.28L40.12 7.28L40.12 7.28Q40.12 6.94 40.18 6.72L40.18 6.72L40.88 6.72L40.88 6.72Q40.82 6.48 40.82 6.16L40.82 6.16L40.82 6.16Q40.82 5.82 40.88 5.60L40.88 5.60L43.12 5.60L43.12 5.60Q43.18 5.82 43.18 6.16L43.18 6.16L43.18 6.16Q43.18 6.48 43.12 6.72L43.12 6.72L43.82 6.72L43.82 6.72Q43.88 6.94 43.88 7.28L43.88 7.28L43.88 7.28Q43.88 7.60 43.82 7.84L43.82 7.84L44.24 7.84L44.24 7.84Q44.30 8.06 44.30 8.40L44.30 8.40ZM42.70 8.96L43.12 8.96L43.12 8.96Q43.06 8.72 43.06 8.40L43.06 8.40L43.06 8.40Q43.06 8.06 43.12 7.84L43.12 7.84L42.70 7.84L42.70 7.84Q42.64 7.60 42.64 7.28L42.64 7.28L42.64 7.28Q42.64 6.94 42.70 6.72L42.70 6.72L41.30 6.72L41.30 6.72Q41.36 6.94 41.36 7.28L41.36 7.28L41.36 7.28Q41.36 7.60 41.30 7.84L41.30 7.84L40.88 7.84L40.88 7.84Q40.94 8.06 40.94 8.40L40.94 8.40L40.94 8.40Q40.94 8.72 40.88 8.96L40.88 8.96L41.30 8.96L41.30 8.96Q41.36 9.18 41.36 9.52L41.36 9.52L41.36 9.52Q41.36 9.84 41.30 10.08L41.30 10.08L42.70 10.08L42.70 10.08Q42.64 9.84 42.64 9.52L42.64 9.52L42.64 9.52Q42.64 9.18 42.70 8.96L42.70 8.96ZM46.12 6.16L46.12 6.16Q46.12 6.48 46.06 6.72L46.06 6.72L46.48 6.72L46.48 6.72Q46.54 6.94 46.54 7.28L46.54 7.28L46.54 7.28Q46.54 7.60 46.48 7.84L46.48 7.84L46.48 7.84Q46.54 8.06 46.54 8.40L46.54 8.40L46.54 8.40Q46.54 8.72 46.48 8.96L46.48 8.96L46.48 8.96Q46.54 9.18 46.54 9.52L46.54 9.52L46.54 9.52Q46.54 9.84 46.48 10.08L46.48 10.08L46.48 10.08Q46.54 10.30 46.54 10.64L46.54 10.64L46.54 10.64Q46.54 10.96 46.48 11.20L46.48 11.20L45.36 11.20L45.36 11.20Q45.30 10.96 45.30 10.64L45.30 10.64L45.30 10.64Q45.30 10.30 45.36 10.08L45.36 10.08L45.36 10.08Q45.30 9.84 45.30 9.52L45.30 9.52L45.30 9.52Q45.30 9.18 45.36 8.96L45.36 8.96L45.36 8.96Q45.30 8.72 45.30 8.40L45.30 8.40L45.30 8.40Q45.30 8.06 45.36 7.84L45.36 7.84L45.36 7.84Q45.30 7.60 45.30 7.28L45.30 7.28L45.30 7.28Q45.30 6.94 45.36 6.72L45.36 6.72L45.36 6.72Q45.30 6.48 45.30 6.16L45.30 6.16L45.30 6.16Q45.30 5.82 45.36 5.60L45.36 5.60L46.06 5.60L46.06 5.60Q46.12 5.82 46.12 6.16L46.12 6.16ZM47.66 6.16L47.66 6.16Q47.66 6.48 47.60 6.72L47.60 6.72L48.02 6.72L48.02 6.72Q48.08 6.94 48.08 7.28L48.08 7.28L48.08 7.28Q48.08 7.60 48.02 7.84L48.02 7.84L48.02 7.84Q48.08 8.06 48.08 8.40L48.08 8.40L48.08 8.40Q48.08 8.72 48.02 8.96L48.02 8.96L48.02 8.96Q48.08 9.18 48.08 9.52L48.08 9.52L48.08 9.52Q48.08 9.84 48.02 10.08L48.02 10.08L48.02 10.08Q48.08 10.30 48.08 10.64L48.08 10.64L48.08 10.64Q48.08 10.96 48.02 11.20L48.02 11.20L47.18 11.20L47.18 11.20Q47.12 10.96 47.12 10.64L47.12 10.64L47.12 10.64Q47.12 10.30 47.18 10.08L47.18 10.08L47.18 10.08Q47.12 9.84 47.12 9.52L47.12 9.52L47.12 9.52Q47.12 9.18 47.18 8.96L47.18 8.96L47.18 8.96Q47.12 8.72 47.12 8.40L47.12 8.40L47.12 8.40Q47.12 8.06 47.18 7.84L47.18 7.84L47.18 7.84Q47.12 7.60 47.12 7.28L47.12 7.28L47.12 7.28Q47.12 6.94 47.18 6.72L47.18 6.72L46.48 6.72L46.48 6.72Q46.42 6.48 46.42 6.16L46.42 6.16L46.42 6.16Q46.42 5.82 46.48 5.60L46.48 5.60L47.60 5.60L47.60 5.60Q47.66 5.82 47.66 6.16L47.66 6.16ZM49.84 7.84L49.84 7.84Q49.90 8.06 49.90 8.40L49.90 8.40L49.90 8.40Q49.90 8.72 49.84 8.96L49.84 8.96L49.84 8.96Q49.90 9.18 49.90 9.52L49.90 9.52L49.90 9.52Q49.90 9.84 49.84 10.08L49.84 10.08L49.84 10.08Q49.90 10.30 49.90 10.64L49.90 10.64L49.90 10.64Q49.90 10.96 49.84 11.20L49.84 11.20L48.72 11.20L48.72 11.20Q48.66 10.96 48.66 10.64L48.66 10.64L48.66 10.64Q48.66 10.30 48.72 10.08L48.72 10.08L48.72 10.08Q48.66 9.84 48.66 9.52L48.66 9.52L48.66 9.52Q48.66 9.18 48.72 8.96L48.72 8.96L48.72 8.96Q48.66 8.72 48.66 8.40L48.66 8.40L48.66 8.40Q48.66 8.06 48.72 7.84L48.72 7.84L48.72 7.84Q48.66 7.60 48.66 7.28L48.66 7.28L48.66 7.28Q48.66 6.94 48.72 6.72L48.72 6.72L48.02 6.72L48.02 6.72Q47.96 6.48 47.96 6.16L47.96 6.16L47.96 6.16Q47.96 5.82 48.02 5.60L48.02 5.60L49.28 5.60L49.28 5.60Q49.34 5.82 49.34 6.16L49.34 6.16L49.34 6.16Q49.34 6.48 49.28 6.72L49.28 6.72L49.84 6.72L49.84 6.72Q49.90 6.94 49.90 7.28L49.90 7.28L49.90 7.28Q49.90 7.60 49.84 7.84L49.84 7.84ZM55.50 8.40L55.50 8.40Q55.50 8.72 55.44 8.96L55.44 8.96L54.88 8.96L54.88 8.96Q54.94 9.18 54.94 9.52L54.94 9.52L54.94 9.52Q54.94 9.84 54.88 10.08L54.88 10.08L54.32 10.08L54.32 10.08Q54.38 10.30 54.38 10.64L54.38 10.64L54.38 10.64Q54.38 10.96 54.32 11.20L54.32 11.20L52.08 11.20L52.08 11.20Q52.14 11.42 52.14 11.76L52.14 11.76L52.14 11.76Q52.14 12.08 52.08 12.32L52.08 12.32L52.08 12.32Q52.14 12.54 52.14 12.88L52.14 12.88L52.14 12.88Q52.14 13.20 52.08 13.44L52.08 13.44L50.96 13.44L50.96 13.44Q50.90 13.20 50.90 12.88L50.90 12.88L50.90 12.88Q50.90 12.54 50.96 12.32L50.96 12.32L50.96 12.32Q50.90 12.08 50.90 11.76L50.90 11.76L50.90 11.76Q50.90 11.42 50.96 11.20L50.96 11.20L50.96 11.20Q50.90 10.96 50.90 10.64L50.90 10.64L50.90 10.64Q50.90 10.30 50.96 10.08L50.96 10.08L50.96 10.08Q50.90 9.84 50.90 9.52L50.90 9.52L50.90 9.52Q50.90 9.18 50.96 8.96L50.96 8.96L50.96 8.96Q50.90 8.72 50.90 8.40L50.90 8.40L50.90 8.40Q50.90 8.06 50.96 7.84L50.96 7.84L50.96 7.84Q50.90 7.60 50.90 7.28L50.90 7.28L50.90 7.28Q50.90 6.94 50.96 6.72L50.96 6.72L50.96 6.72Q50.90 6.48 50.90 6.16L50.90 6.16L50.90 6.16Q50.90 5.82 50.96 5.60L50.96 5.60L52.08 5.60L52.08 5.60Q52.14 5.82 52.14 6.16L52.14 6.16L52.14 6.16Q52.14 6.48 52.08 6.72L52.08 6.72L52.64 6.72L52.64 6.72Q52.70 6.94 52.70 7.28L52.70 7.28L52.70 7.28Q52.70 7.60 52.64 7.84L52.64 7.84L52.08 7.84L52.08 7.84Q52.14 8.06 52.14 8.40L52.14 8.40L52.14 8.40Q52.14 8.72 52.08 8.96L52.08 8.96L52.08 8.96Q52.14 9.18 52.14 9.52L52.14 9.52L52.14 9.52Q52.14 9.84 52.08 10.08L52.08 10.08L53.76 10.08L53.76 10.08Q53.70 9.84 53.70 9.52L53.70 9.52L53.70 9.52Q53.70 9.18 53.76 8.96L53.76 8.96L54.32 8.96L54.32 8.96Q54.26 8.72 54.26 8.40L54.26 8.40L54.26 8.40Q54.26 8.06 54.32 7.84L54.32 7.84L53.76 7.84L53.76 7.84Q53.70 7.60 53.70 7.28L53.70 7.28L53.70 7.28Q53.70 6.94 53.76 6.72L53.76 6.72L52.64 6.72L52.64 6.72Q52.58 6.48 52.58 6.16L52.58 6.16L52.58 6.16Q52.58 5.82 52.64 5.60L52.64 5.60L54.32 5.60L54.32 5.60Q54.38 5.82 54.38 6.16L54.38 6.16L54.38 6.16Q54.38 6.48 54.32 6.72L54.32 6.72L54.88 6.72L54.88 6.72Q54.94 6.94 54.94 7.28L54.94 7.28L54.94 7.28Q54.94 7.60 54.88 7.84L54.88 7.84L55.44 7.84L55.44 7.84Q55.50 8.06 55.50 8.40L55.50 8.40ZM58.16 9.52L58.16 9.52Q58.16 9.84 58.10 10.08L58.10 10.08L59.50 10.08L59.50 10.08Q59.56 10.30 59.56 10.64L59.56 10.64L59.56 10.64Q59.56 10.96 59.50 11.20L59.50 11.20L57.26 11.20L57.26 11.20Q57.20 10.96 57.20 10.64L57.20 10.64L57.20 10.64Q57.20 10.30 57.26 10.08L57.26 10.08L56.56 10.08L56.56 10.08Q56.50 9.84 56.50 9.52L56.50 9.52L56.50 9.52Q56.50 9.18 56.56 8.96L56.56 8.96L56.56 8.96Q56.50 8.72 56.50 8.40L56.50 8.40L56.50 8.40Q56.50 8.06 56.56 7.84L56.56 7.84L56.56 7.84Q56.50 7.60 56.50 7.28L56.50 7.28L56.50 7.28Q56.50 6.94 56.56 6.72L56.56 6.72L56.56 6.72Q56.50 6.48 56.50 6.16L56.50 6.16L56.50 6.16Q56.50 5.82 56.56 5.60L56.56 5.60L57.68 5.60L57.68 5.60Q57.74 5.82 57.74 6.16L57.74 6.16L57.74 6.16Q57.74 6.48 57.68 6.72L57.68 6.72L57.68 6.72Q57.74 6.94 57.74 7.28L57.74 7.28L57.74 7.28Q57.74 7.60 57.68 7.84L57.68 7.84L57.68 7.84Q57.74 8.06 57.74 8.40L57.74 8.40L57.74 8.40Q57.74 8.72 57.68 8.96L57.68 8.96L58.10 8.96L58.10 8.96Q58.16 9.18 58.16 9.52L58.16 9.52ZM61.04 6.72L61.04 6.72Q61.10 6.94 61.10 7.28L61.10 7.28L61.10 7.28Q61.10 7.60 61.04 7.84L61.04 7.84L61.04 7.84Q61.10 8.06 61.10 8.40L61.10 8.40L61.10 8.40Q61.10 8.72 61.04 8.96L61.04 8.96L61.04 8.96Q61.10 9.18 61.10 9.52L61.10 9.52L61.10 9.52Q61.10 9.84 61.04 10.08L61.04 10.08L61.04 10.08Q61.10 10.30 61.10 10.64L61.10 10.64L61.10 10.64Q61.10 10.96 61.04 11.20L61.04 11.20L59.92 11.20L59.92 11.20Q59.86 10.96 59.86 10.64L59.86 10.64L59.86 10.64Q59.86 10.30 59.92 10.08L59.92 10.08L59.50 10.08L59.50 10.08Q59.44 9.84 59.44 9.52L59.44 9.52L59.44 9.52Q59.44 9.18 59.50 8.96L59.50 8.96L59.92 8.96L59.92 8.96Q59.86 8.72 59.86 8.40L59.86 8.40L59.86 8.40Q59.86 8.06 59.92 7.84L59.92 7.84L59.92 7.84Q59.86 7.60 59.86 7.28L59.86 7.28L59.86 7.28Q59.86 6.94 59.92 6.72L59.92 6.72L59.92 6.72Q59.86 6.48 59.86 6.16L59.86 6.16L59.86 6.16Q59.86 5.82 59.92 5.60L59.92 5.60L61.04 5.60L61.04 5.60Q61.10 5.82 61.10 6.16L61.10 6.16L61.10 6.16Q61.10 6.48 61.04 6.72L61.04 6.72ZM64.40 10.08L66.08 10.08L66.08 10.08Q66.14 10.30 66.14 10.64L66.14 10.64L66.14 10.64Q66.14 10.96 66.08 11.20L66.08 11.20L63.84 11.20L63.84 11.20Q63.78 10.96 63.78 10.64L63.78 10.64L63.78 10.64Q63.78 10.30 63.84 10.08L63.84 10.08L63.28 10.08L63.28 10.08Q63.22 9.84 63.22 9.52L63.22 9.52L63.22 9.52Q63.22 9.18 63.28 8.96L63.28 8.96L63.28 8.96Q63.22 8.72 63.22 8.40L63.22 8.40L63.22 8.40Q63.22 8.06 63.28 7.84L63.28 7.84L63.28 7.84Q63.22 7.60 63.22 7.28L63.22 7.28L63.22 7.28Q63.22 6.94 63.28 6.72L63.28 6.72L62.16 6.72L62.16 6.72Q62.10 6.48 62.10 6.16L62.10 6.16L62.10 6.16Q62.10 5.82 62.16 5.60L62.16 5.60L63.28 5.60L63.28 5.60Q63.22 5.36 63.22 5.04L63.22 5.04L63.22 5.04Q63.22 4.70 63.28 4.48L63.28 4.48L63.28 4.48Q63.22 4.24 63.22 3.92L63.22 3.92L63.22 3.92Q63.22 3.58 63.28 3.36L63.28 3.36L64.40 3.36L64.40 3.36Q64.46 3.58 64.46 3.92L64.46 3.92L64.46 3.92Q64.46 4.24 64.40 4.48L64.40 4.48L64.40 4.48Q64.46 4.70 64.46 5.04L64.46 5.04L64.46 5.04Q64.46 5.36 64.40 5.60L64.40 5.60L66.08 5.60L66.08 5.60Q66.14 5.82 66.14 6.16L66.14 6.16L66.14 6.16Q66.14 6.48 66.08 6.72L66.08 6.72L64.40 6.72L64.40 6.72Q64.46 6.94 64.46 7.28L64.46 7.28L64.46 7.28Q64.46 7.60 64.40 7.84L64.40 7.84L64.40 7.84Q64.46 8.06 64.46 8.40L64.46 8.40L64.46 8.40Q64.46 8.72 64.40 8.96L64.40 8.96L64.40 8.96Q64.46 9.18 64.46 9.52L64.46 9.52L64.46 9.52Q64.46 9.84 64.40 10.08L64.40 10.08ZM72.30 7.28L72.30 7.28Q72.30 7.60 72.24 7.84L72.24 7.84L72.24 7.84Q72.30 8.06 72.30 8.40L72.30 8.40L72.30 8.40Q72.30 8.72 72.24 8.96L72.24 8.96L69.30 8.96L69.30 8.96Q69.36 9.18 69.36 9.52L69.36 9.52L69.36 9.52Q69.36 9.84 69.30 10.08L69.30 10.08L71.68 10.08L71.68 10.08Q71.74 10.30 71.74 10.64L71.74 10.64L71.74 10.64Q71.74 10.96 71.68 11.20L71.68 11.20L68.88 11.20L68.88 11.20Q68.82 10.96 68.82 10.64L68.82 10.64L68.82 10.64Q68.82 10.30 68.88 10.08L68.88 10.08L68.18 10.08L68.18 10.08Q68.12 9.84 68.12 9.52L68.12 9.52L68.12 9.52Q68.12 9.18 68.18 8.96L68.18 8.96L67.76 8.96L67.76 8.96Q67.70 8.72 67.70 8.40L67.70 8.40L67.70 8.40Q67.70 8.06 67.76 7.84L67.76 7.84L68.18 7.84L68.18 7.84Q68.12 7.60 68.12 7.28L68.12 7.28L68.12 7.28Q68.12 6.94 68.18 6.72L68.18 6.72L68.88 6.72L68.88 6.72Q68.82 6.48 68.82 6.16L68.82 6.16L68.82 6.16Q68.82 5.82 68.88 5.60L68.88 5.60L71.68 5.60L71.68 5.60Q71.74 5.82 71.74 6.16L71.74 6.16L71.74 6.16Q71.74 6.48 71.68 6.72L71.68 6.72L72.24 6.72L72.24 6.72Q72.30 6.94 72.30 7.28L72.30 7.28ZM71.12 7.84L71.12 7.84Q71.06 7.60 71.06 7.28L71.06 7.28L71.06 7.28Q71.06 6.94 71.12 6.72L71.12 6.72L69.30 6.72L69.30 6.72Q69.36 6.94 69.36 7.28L69.36 7.28L69.36 7.28Q69.36 7.60 69.30 7.84L69.30 7.84L71.12 7.84ZM77.84 6.72L77.84 6.72Q77.90 6.94 77.90 7.28L77.90 7.28L77.90 7.28Q77.90 7.60 77.84 7.84L77.84 7.84L76.72 7.84L76.72 7.84Q76.66 7.60 76.66 7.28L76.66 7.28L76.66 7.28Q76.66 6.94 76.72 6.72L76.72 6.72L75.74 6.72L75.74 6.72Q75.80 6.94 75.80 7.28L75.80 7.28L75.80 7.28Q75.80 7.60 75.74 7.84L75.74 7.84L75.32 7.84L75.32 7.84Q75.38 8.06 75.38 8.40L75.38 8.40L75.38 8.40Q75.38 8.72 75.32 8.96L75.32 8.96L75.32 8.96Q75.38 9.18 75.38 9.52L75.38 9.52L75.38 9.52Q75.38 9.84 75.32 10.08L75.32 10.08L76.16 10.08L76.16 10.08Q76.22 10.30 76.22 10.64L76.22 10.64L76.22 10.64Q76.22 10.96 76.16 11.20L76.16 11.20L73.36 11.20L73.36 11.20Q73.30 10.96 73.30 10.64L73.30 10.64L73.30 10.64Q73.30 10.30 73.36 10.08L73.36 10.08L74.20 10.08L74.20 10.08Q74.14 9.84 74.14 9.52L74.14 9.52L74.14 9.52Q74.14 9.18 74.20 8.96L74.20 8.96L74.20 8.96Q74.14 8.72 74.14 8.40L74.14 8.40L74.14 8.40Q74.14 8.06 74.20 7.84L74.20 7.84L74.20 7.84Q74.14 7.60 74.14 7.28L74.14 7.28L74.14 7.28Q74.14 6.94 74.20 6.72L74.20 6.72L73.36 6.72L73.36 6.72Q73.30 6.48 73.30 6.16L73.30 6.16L73.30 6.16Q73.30 5.82 73.36 5.60L73.36 5.60L74.76 5.60L74.76 5.60Q74.82 5.82 74.82 6.16L74.82 6.16L74.82 6.16Q74.82 6.48 74.76 6.72L74.76 6.72L75.32 6.72L75.32 6.72Q75.26 6.48 75.26 6.16L75.26 6.16L75.26 6.16Q75.26 5.82 75.32 5.60L75.32 5.60L77.42 5.60L77.42 5.60Q77.48 5.82 77.48 6.16L77.48 6.16L77.48 6.16Q77.48 6.48 77.42 6.72L77.42 6.72L77.84 6.72ZM87.92 8.96L89.04 8.96L89.04 8.96Q89.10 9.18 89.10 9.52L89.10 9.52L89.10 9.52Q89.10 9.84 89.04 10.08L89.04 10.08L88.48 10.08L88.48 10.08Q88.54 10.30 88.54 10.64L88.54 10.64L88.54 10.64Q88.54 10.96 88.48 11.20L88.48 11.20L85.68 11.20L85.68 11.20Q85.62 10.96 85.62 10.64L85.62 10.64L85.62 10.64Q85.62 10.30 85.68 10.08L85.68 10.08L85.12 10.08L85.12 10.08Q85.06 9.84 85.06 9.52L85.06 9.52L85.06 9.52Q85.06 9.18 85.12 8.96L85.12 8.96L84.56 8.96L84.56 8.96Q84.50 8.72 84.50 8.40L84.50 8.40L84.50 8.40Q84.50 8.06 84.56 7.84L84.56 7.84L84.56 7.84Q84.50 7.60 84.50 7.28L84.50 7.28L84.50 7.28Q84.50 6.94 84.56 6.72L84.56 6.72L84.56 6.72Q84.50 6.48 84.50 6.16L84.50 6.16L84.50 6.16Q84.50 5.82 84.56 5.60L84.56 5.60L85.12 5.60L85.12 5.60Q85.06 5.36 85.06 5.04L85.06 5.04L85.06 5.04Q85.06 4.70 85.12 4.48L85.12 4.48L85.68 4.48L85.68 4.48Q85.62 4.24 85.62 3.92L85.62 3.92L85.62 3.92Q85.62 3.58 85.68 3.36L85.68 3.36L88.48 3.36L88.48 3.36Q88.54 3.58 88.54 3.92L88.54 3.92L88.54 3.92Q88.54 4.24 88.48 4.48L88.48 4.48L89.04 4.48L89.04 4.48Q89.10 4.70 89.10 5.04L89.10 5.04L89.10 5.04Q89.10 5.36 89.04 5.60L89.04 5.60L87.92 5.60L87.92 5.60Q87.86 5.36 87.86 5.04L87.86 5.04L87.86 5.04Q87.86 4.70 87.92 4.48L87.92 4.48L86.24 4.48L86.24 4.48Q86.30 4.70 86.30 5.04L86.30 5.04L86.30 5.04Q86.30 5.36 86.24 5.60L86.24 5.60L85.68 5.60L85.68 5.60Q85.74 5.82 85.74 6.16L85.74 6.16L85.74 6.16Q85.74 6.48 85.68 6.72L85.68 6.72L85.68 6.72Q85.74 6.94 85.74 7.28L85.74 7.28L85.74 7.28Q85.74 7.60 85.68 7.84L85.68 7.84L85.68 7.84Q85.74 8.06 85.74 8.40L85.74 8.40L85.74 8.40Q85.74 8.72 85.68 8.96L85.68 8.96L86.24 8.96L86.24 8.96Q86.30 9.18 86.30 9.52L86.30 9.52L86.30 9.52Q86.30 9.84 86.24 10.08L86.24 10.08L87.92 10.08L87.92 10.08Q87.86 9.84 87.86 9.52L87.86 9.52L87.86 9.52Q87.86 9.18 87.92 8.96L87.92 8.96ZM94.08 10.08L94.08 10.08Q94.14 10.30 94.14 10.64L94.14 10.64L94.14 10.64Q94.14 10.96 94.08 11.20L94.08 11.20L90.72 11.20L90.72 11.20Q90.66 10.96 90.66 10.64L90.66 10.64L90.66 10.64Q90.66 10.30 90.72 10.08L90.72 10.08L91.84 10.08L91.84 10.08Q91.78 9.84 91.78 9.52L91.78 9.52L91.78 9.52Q91.78 9.18 91.84 8.96L91.84 8.96L91.84 8.96Q91.78 8.72 91.78 8.40L91.78 8.40L91.78 8.40Q91.78 8.06 91.84 7.84L91.84 7.84L91.84 7.84Q91.78 7.60 91.78 7.28L91.78 7.28L91.78 7.28Q91.78 6.94 91.84 6.72L91.84 6.72L91.84 6.72Q91.78 6.48 91.78 6.16L91.78 6.16L91.78 6.16Q91.78 5.82 91.84 5.60L91.84 5.60L91.84 5.60Q91.78 5.36 91.78 5.04L91.78 5.04L91.78 5.04Q91.78 4.70 91.84 4.48L91.84 4.48L91.00 4.48L91.00 4.48Q90.94 4.24 90.94 3.92L90.94 3.92L90.94 3.92Q90.94 3.58 91.00 3.36L91.00 3.36L92.96 3.36L92.96 3.36Q93.02 3.58 93.02 3.92L93.02 3.92L93.02 3.92Q93.02 4.24 92.96 4.48L92.96 4.48L92.96 4.48Q93.02 4.70 93.02 5.04L93.02 5.04L93.02 5.04Q93.02 5.36 92.96 5.60L92.96 5.60L92.96 5.60Q93.02 5.82 93.02 6.16L93.02 6.16L93.02 6.16Q93.02 6.48 92.96 6.72L92.96 6.72L92.96 6.72Q93.02 6.94 93.02 7.28L93.02 7.28L93.02 7.28Q93.02 7.60 92.96 7.84L92.96 7.84L92.96 7.84Q93.02 8.06 93.02 8.40L93.02 8.40L93.02 8.40Q93.02 8.72 92.96 8.96L92.96 8.96L92.96 8.96Q93.02 9.18 93.02 9.52L93.02 9.52L93.02 9.52Q93.02 9.84 92.96 10.08L92.96 10.08L94.08 10.08ZM97.36 9.52L97.36 9.52Q97.36 9.84 97.30 10.08L97.30 10.08L98.70 10.08L98.70 10.08Q98.76 10.30 98.76 10.64L98.76 10.64L98.76 10.64Q98.76 10.96 98.70 11.20L98.70 11.20L96.46 11.20L96.46 11.20Q96.40 10.96 96.40 10.64L96.40 10.64L96.40 10.64Q96.40 10.30 96.46 10.08L96.46 10.08L95.76 10.08L95.76 10.08Q95.70 9.84 95.70 9.52L95.70 9.52L95.70 9.52Q95.70 9.18 95.76 8.96L95.76 8.96L95.76 8.96Q95.70 8.72 95.70 8.40L95.70 8.40L95.70 8.40Q95.70 8.06 95.76 7.84L95.76 7.84L95.76 7.84Q95.70 7.60 95.70 7.28L95.70 7.28L95.70 7.28Q95.70 6.94 95.76 6.72L95.76 6.72L95.76 6.72Q95.70 6.48 95.70 6.16L95.70 6.16L95.70 6.16Q95.70 5.82 95.76 5.60L95.76 5.60L96.88 5.60L96.88 5.60Q96.94 5.82 96.94 6.16L96.94 6.16L96.94 6.16Q96.94 6.48 96.88 6.72L96.88 6.72L96.88 6.72Q96.94 6.94 96.94 7.28L96.94 7.28L96.94 7.28Q96.94 7.60 96.88 7.84L96.88 7.84L96.88 7.84Q96.94 8.06 96.94 8.40L96.94 8.40L96.94 8.40Q96.94 8.72 96.88 8.96L96.88 8.96L97.30 8.96L97.30 8.96Q97.36 9.18 97.36 9.52L97.36 9.52ZM100.24 6.72L100.24 6.72Q100.30 6.94 100.30 7.28L100.30 7.28L100.30 7.28Q100.30 7.60 100.24 7.84L100.24 7.84L100.24 7.84Q100.30 8.06 100.30 8.40L100.30 8.40L100.30 8.40Q100.30 8.72 100.24 8.96L100.24 8.96L100.24 8.96Q100.30 9.18 100.30 9.52L100.30 9.52L100.30 9.52Q100.30 9.84 100.24 10.08L100.24 10.08L100.24 10.08Q100.30 10.30 100.30 10.64L100.30 10.64L100.30 10.64Q100.30 10.96 100.24 11.20L100.24 11.20L99.12 11.20L99.12 11.20Q99.06 10.96 99.06 10.64L99.06 10.64L99.06 10.64Q99.06 10.30 99.12 10.08L99.12 10.08L98.70 10.08L98.70 10.08Q98.64 9.84 98.64 9.52L98.64 9.52L98.64 9.52Q98.64 9.18 98.70 8.96L98.70 8.96L99.12 8.96L99.12 8.96Q99.06 8.72 99.06 8.40L99.06 8.40L99.06 8.40Q99.06 8.06 99.12 7.84L99.12 7.84L99.12 7.84Q99.06 7.60 99.06 7.28L99.06 7.28L99.06 7.28Q99.06 6.94 99.12 6.72L99.12 6.72L99.12 6.72Q99.06 6.48 99.06 6.16L99.06 6.16L99.06 6.16Q99.06 5.82 99.12 5.60L99.12 5.60L100.24 5.60L100.24 5.60Q100.30 5.82 100.30 6.16L100.30 6.16L100.30 6.16Q100.30 6.48 100.24 6.72L100.24 6.72ZM102.48 8.96L102.48 8.96Q102.54 9.18 102.54 9.52L102.54 9.52L102.54 9.52Q102.54 9.84 102.48 10.08L102.48 10.08L101.92 10.08L101.92 10.08Q101.98 10.30 101.98 10.64L101.98 10.64L101.98 10.64Q101.98 10.96 101.92 11.20L101.92 11.20L101.36 11.20L101.36 11.20Q101.30 10.96 101.30 10.64L101.30 10.64L101.30 10.64Q101.30 10.30 101.36 10.08L101.36 10.08L101.36 10.08Q101.30 9.84 101.30 9.52L101.30 9.52L101.30 9.52Q101.30 9.18 101.36 8.96L101.36 8.96L101.36 8.96Q101.30 8.72 101.30 8.40L101.30 8.40L101.30 8.40Q101.30 8.06 101.36 7.84L101.36 7.84L101.36 7.84Q101.30 7.60 101.30 7.28L101.30 7.28L101.30 7.28Q101.30 6.94 101.36 6.72L101.36 6.72L101.36 6.72Q101.30 6.48 101.30 6.16L101.30 6.16L101.30 6.16Q101.30 5.82 101.36 5.60L101.36 5.60L101.36 5.60Q101.30 5.36 101.30 5.04L101.30 5.04L101.30 5.04Q101.30 4.70 101.36 4.48L101.36 4.48L101.36 4.48Q101.30 4.24 101.30 3.92L101.30 3.92L101.30 3.92Q101.30 3.58 101.36 3.36L101.36 3.36L102.48 3.36L102.48 3.36Q102.54 3.58 102.54 3.92L102.54 3.92L102.54 3.92Q102.54 4.24 102.48 4.48L102.48 4.48L102.48 4.48Q102.54 4.70 102.54 5.04L102.54 5.04L102.54 5.04Q102.54 5.36 102.48 5.60L102.48 5.60L102.48 5.60Q102.54 5.82 102.54 6.16L102.54 6.16L102.54 6.16Q102.54 6.48 102.48 6.72L102.48 6.72L103.04 6.72L103.04 6.72Q103.10 6.94 103.10 7.28L103.10 7.28L103.10 7.28Q103.10 7.60 103.04 7.84L103.04 7.84L102.48 7.84L102.48 7.84Q102.54 8.06 102.54 8.40L102.54 8.40L102.54 8.40Q102.54 8.72 102.48 8.96L102.48 8.96ZM105.90 8.40L105.90 8.40Q105.90 8.72 105.84 8.96L105.84 8.96L105.28 8.96L105.28 8.96Q105.34 9.18 105.34 9.52L105.34 9.52L105.34 9.52Q105.34 9.84 105.28 10.08L105.28 10.08L104.16 10.08L104.16 10.08Q104.10 9.84 104.10 9.52L104.10 9.52L104.10 9.52Q104.10 9.18 104.16 8.96L104.16 8.96L104.72 8.96L104.72 8.96Q104.66 8.72 104.66 8.40L104.66 8.40L104.66 8.40Q104.66 8.06 104.72 7.84L104.72 7.84L104.16 7.84L104.16 7.84Q104.10 7.60 104.10 7.28L104.10 7.28L104.10 7.28Q104.10 6.94 104.16 6.72L104.16 6.72L103.04 6.72L103.04 6.72Q102.98 6.48 102.98 6.16L102.98 6.16L102.98 6.16Q102.98 5.82 103.04 5.60L103.04 5.60L104.72 5.60L104.72 5.60Q104.78 5.82 104.78 6.16L104.78 6.16L104.78 6.16Q104.78 6.48 104.72 6.72L104.72 6.72L105.28 6.72L105.28 6.72Q105.34 6.94 105.34 7.28L105.34 7.28L105.34 7.28Q105.34 7.60 105.28 7.84L105.28 7.84L105.84 7.84L105.84 7.84Q105.90 8.06 105.90 8.40L105.90 8.40ZM102.42 10.64L102.42 10.64Q102.42 10.30 102.48 10.08L102.48 10.08L104.16 10.08L104.16 10.08Q104.22 10.30 104.22 10.64L104.22 10.64L104.22 10.64Q104.22 10.96 104.16 11.20L104.16 11.20L102.48 11.20L102.48 11.20Q102.42 10.96 102.42 10.64L102.42 10.64ZM117.04 10.08L117.04 10.08Q117.10 10.30 117.10 10.64L117.10 10.64L117.10 10.64Q117.10 10.96 117.04 11.20L117.04 11.20L115.92 11.20L115.92 11.20Q115.86 10.96 115.86 10.64L115.86 10.64L115.86 10.64Q115.86 10.30 115.92 10.08L115.92 10.08L115.36 10.08L115.36 10.08Q115.30 9.84 115.30 9.52L115.30 9.52L115.30 9.52Q115.30 9.18 115.36 8.96L115.36 8.96L113.68 8.96L113.68 8.96Q113.74 9.18 113.74 9.52L113.74 9.52L113.74 9.52Q113.74 9.84 113.68 10.08L113.68 10.08L115.36 10.08L115.36 10.08Q115.42 10.30 115.42 10.64L115.42 10.64L115.42 10.64Q115.42 10.96 115.36 11.20L115.36 11.20L113.12 11.20L113.12 11.20Q113.06 10.96 113.06 10.64L113.06 10.64L113.06 10.64Q113.06 10.30 113.12 10.08L113.12 10.08L112.56 10.08L112.56 10.08Q112.50 9.84 112.50 9.52L112.50 9.52L112.50 9.52Q112.50 9.18 112.56 8.96L112.56 8.96L113.12 8.96L113.12 8.96Q113.06 8.72 113.06 8.40L113.06 8.40L113.06 8.40Q113.06 8.06 113.12 7.84L113.12 7.84L115.36 7.84L115.36 7.84Q115.30 7.60 115.30 7.28L115.30 7.28L115.30 7.28Q115.30 6.94 115.36 6.72L115.36 6.72L113.40 6.72L113.40 6.72Q113.34 6.48 113.34 6.16L113.34 6.16L113.34 6.16Q113.34 5.82 113.40 5.60L113.40 5.60L115.92 5.60L115.92 5.60Q115.98 5.82 115.98 6.16L115.98 6.16L115.98 6.16Q115.98 6.48 115.92 6.72L115.92 6.72L116.48 6.72L116.48 6.72Q116.54 6.94 116.54 7.28L116.54 7.28L116.54 7.28Q116.54 7.60 116.48 7.84L116.48 7.84L116.48 7.84Q116.54 8.06 116.54 8.40L116.54 8.40L116.54 8.40Q116.54 8.72 116.48 8.96L116.48 8.96L116.48 8.96Q116.54 9.18 116.54 9.52L116.54 9.52L116.54 9.52Q116.54 9.84 116.48 10.08L116.48 10.08L117.04 10.08ZM119.20 6.16L119.20 6.16Q119.20 6.48 119.14 6.72L119.14 6.72L119.70 6.72L119.70 6.72Q119.76 6.94 119.76 7.28L119.76 7.28L119.76 7.28Q119.76 7.60 119.70 7.84L119.70 7.84L119.28 7.84L119.28 7.84Q119.34 8.06 119.34 8.40L119.34 8.40L119.34 8.40Q119.34 8.72 119.28 8.96L119.28 8.96L119.28 8.96Q119.34 9.18 119.34 9.52L119.34 9.52L119.34 9.52Q119.34 9.84 119.28 10.08L119.28 10.08L119.28 10.08Q119.34 10.30 119.34 10.64L119.34 10.64L119.34 10.64Q119.34 10.96 119.28 11.20L119.28 11.20L118.16 11.20L118.16 11.20Q118.10 10.96 118.10 10.64L118.10 10.64L118.10 10.64Q118.10 10.30 118.16 10.08L118.16 10.08L118.16 10.08Q118.10 9.84 118.10 9.52L118.10 9.52L118.10 9.52Q118.10 9.18 118.16 8.96L118.16 8.96L118.16 8.96Q118.10 8.72 118.10 8.40L118.10 8.40L118.10 8.40Q118.10 8.06 118.16 7.84L118.16 7.84L118.16 7.84Q118.10 7.60 118.10 7.28L118.10 7.28L118.10 7.28Q118.10 6.94 118.16 6.72L118.16 6.72L118.16 6.72Q118.10 6.48 118.10 6.16L118.10 6.16L118.10 6.16Q118.10 5.82 118.16 5.60L118.16 5.60L119.14 5.60L119.14 5.60Q119.20 5.82 119.20 6.16L119.20 6.16ZM122.64 7.84L122.64 7.84Q122.70 8.06 122.70 8.40L122.70 8.40L122.70 8.40Q122.70 8.72 122.64 8.96L122.64 8.96L122.64 8.96Q122.70 9.18 122.70 9.52L122.70 9.52L122.70 9.52Q122.70 9.84 122.64 10.08L122.64 10.08L122.64 10.08Q122.70 10.30 122.70 10.64L122.70 10.64L122.70 10.64Q122.70 10.96 122.64 11.20L122.64 11.20L121.52 11.20L121.52 11.20Q121.46 10.96 121.46 10.64L121.46 10.64L121.46 10.64Q121.46 10.30 121.52 10.08L121.52 10.08L121.52 10.08Q121.46 9.84 121.46 9.52L121.46 9.52L121.46 9.52Q121.46 9.18 121.52 8.96L121.52 8.96L121.52 8.96Q121.46 8.72 121.46 8.40L121.46 8.40L121.46 8.40Q121.46 8.06 121.52 7.84L121.52 7.84L121.52 7.84Q121.46 7.60 121.46 7.28L121.46 7.28L121.46 7.28Q121.46 6.94 121.52 6.72L121.52 6.72L119.70 6.72L119.70 6.72Q119.64 6.48 119.64 6.16L119.64 6.16L119.64 6.16Q119.64 5.82 119.70 5.60L119.70 5.60L121.94 5.60L121.94 5.60Q122.00 5.82 122.00 6.16L122.00 6.16L122.00 6.16Q122.00 6.48 121.94 6.72L121.94 6.72L122.64 6.72L122.64 6.72Q122.70 6.94 122.70 7.28L122.70 7.28L122.70 7.28Q122.70 7.60 122.64 7.84L122.64 7.84ZM133.84 4.48L133.84 4.48Q133.90 4.70 133.90 5.04L133.90 5.04L133.90 5.04Q133.90 5.36 133.84 5.60L133.84 5.60L133.84 5.60Q133.90 5.82 133.90 6.16L133.90 6.16L133.90 6.16Q133.90 6.48 133.84 6.72L133.84 6.72L133.84 6.72Q133.90 6.94 133.90 7.28L133.90 7.28L133.90 7.28Q133.90 7.60 133.84 7.84L133.84 7.84L133.84 7.84Q133.90 8.06 133.90 8.40L133.90 8.40L133.90 8.40Q133.90 8.72 133.84 8.96L133.84 8.96L133.84 8.96Q133.90 9.18 133.90 9.52L133.90 9.52L133.90 9.52Q133.90 9.84 133.84 10.08L133.84 10.08L133.84 10.08Q133.90 10.30 133.90 10.64L133.90 10.64L133.90 10.64Q133.90 10.96 133.84 11.20L133.84 11.20L132.72 11.20L132.72 11.20Q132.66 10.96 132.66 10.64L132.66 10.64L132.66 10.64Q132.66 10.30 132.72 10.08L132.72 10.08L132.30 10.08L132.30 10.08Q132.24 9.84 132.24 9.52L132.24 9.52L132.24 9.52Q132.24 9.18 132.30 8.96L132.30 8.96L132.72 8.96L132.72 8.96Q132.66 8.72 132.66 8.40L132.66 8.40L132.66 8.40Q132.66 8.06 132.72 7.84L132.72 7.84L132.30 7.84L132.30 7.84Q132.24 7.60 132.24 7.28L132.24 7.28L132.24 7.28Q132.24 6.94 132.30 6.72L132.30 6.72L132.72 6.72L132.72 6.72Q132.66 6.48 132.66 6.16L132.66 6.16L132.66 6.16Q132.66 5.82 132.72 5.60L132.72 5.60L132.72 5.60Q132.66 5.36 132.66 5.04L132.66 5.04L132.66 5.04Q132.66 4.70 132.72 4.48L132.72 4.48L132.72 4.48Q132.66 4.24 132.66 3.92L132.66 3.92L132.66 3.92Q132.66 3.58 132.72 3.36L132.72 3.36L133.84 3.36L133.84 3.36Q133.90 3.58 133.90 3.92L133.90 3.92L133.90 3.92Q133.90 4.24 133.84 4.48L133.84 4.48ZM132.08 6.16L132.08 6.16Q132.08 6.48 132.02 6.72L132.02 6.72L130.62 6.72L130.62 6.72Q130.68 6.94 130.68 7.28L130.68 7.28L130.68 7.28Q130.68 7.60 130.62 7.84L130.62 7.84L130.20 7.84L130.20 7.84Q130.26 8.06 130.26 8.40L130.26 8.40L130.26 8.40Q130.26 8.72 130.20 8.96L130.20 8.96L130.62 8.96L130.62 8.96Q130.68 9.18 130.68 9.52L130.68 9.52L130.68 9.52Q130.68 9.84 130.62 10.08L130.62 10.08L132.02 10.08L132.02 10.08Q132.08 10.30 132.08 10.64L132.08 10.64L132.08 10.64Q132.08 10.96 132.02 11.20L132.02 11.20L130.48 11.20L130.48 11.20Q130.42 10.96 130.42 10.64L130.42 10.64L130.42 10.64Q130.42 10.30 130.48 10.08L130.48 10.08L129.78 10.08L129.78 10.08Q129.72 9.84 129.72 9.52L129.72 9.52L129.72 9.52Q129.72 9.18 129.78 8.96L129.78 8.96L129.36 8.96L129.36 8.96Q129.30 8.72 129.30 8.40L129.30 8.40L129.30 8.40Q129.30 8.06 129.36 7.84L129.36 7.84L129.78 7.84L129.78 7.84Q129.72 7.60 129.72 7.28L129.72 7.28L129.72 7.28Q129.72 6.94 129.78 6.72L129.78 6.72L130.48 6.72L130.48 6.72Q130.42 6.48 130.42 6.16L130.42 6.16L130.42 6.16Q130.42 5.82 130.48 5.60L130.48 5.60L132.02 5.60L132.02 5.60Q132.08 5.82 132.08 6.16L132.08 6.16ZM139.50 7.28L139.50 7.28Q139.50 7.60 139.44 7.84L139.44 7.84L139.44 7.84Q139.50 8.06 139.50 8.40L139.50 8.40L139.50 8.40Q139.50 8.72 139.44 8.96L139.44 8.96L136.50 8.96L136.50 8.96Q136.56 9.18 136.56 9.52L136.56 9.52L136.56 9.52Q136.56 9.84 136.50 10.08L136.50 10.08L138.88 10.08L138.88 10.08Q138.94 10.30 138.94 10.64L138.94 10.64L138.94 10.64Q138.94 10.96 138.88 11.20L138.88 11.20L136.08 11.20L136.08 11.20Q136.02 10.96 136.02 10.64L136.02 10.64L136.02 10.64Q136.02 10.30 136.08 10.08L136.08 10.08L135.38 10.08L135.38 10.08Q135.32 9.84 135.32 9.52L135.32 9.52L135.32 9.52Q135.32 9.18 135.38 8.96L135.38 8.96L134.96 8.96L134.96 8.96Q134.90 8.72 134.90 8.40L134.90 8.40L134.90 8.40Q134.90 8.06 134.96 7.84L134.96 7.84L135.38 7.84L135.38 7.84Q135.32 7.60 135.32 7.28L135.32 7.28L135.32 7.28Q135.32 6.94 135.38 6.72L135.38 6.72L136.08 6.72L136.08 6.72Q136.02 6.48 136.02 6.16L136.02 6.16L136.02 6.16Q136.02 5.82 136.08 5.60L136.08 5.60L138.88 5.60L138.88 5.60Q138.94 5.82 138.94 6.16L138.94 6.16L138.94 6.16Q138.94 6.48 138.88 6.72L138.88 6.72L139.44 6.72L139.44 6.72Q139.50 6.94 139.50 7.28L139.50 7.28ZM138.32 7.84L138.32 7.84Q138.26 7.60 138.26 7.28L138.26 7.28L138.26 7.28Q138.26 6.94 138.32 6.72L138.32 6.72L136.50 6.72L136.50 6.72Q136.56 6.94 136.56 7.28L136.56 7.28L136.56 7.28Q136.56 7.60 136.50 7.84L136.50 7.84L138.32 7.84ZM145.04 6.72L145.04 6.72Q145.10 6.94 145.10 7.28L145.10 7.28L145.10 7.28Q145.10 7.60 145.04 7.84L145.04 7.84L143.92 7.84L143.92 7.84Q143.86 7.60 143.86 7.28L143.86 7.28L143.86 7.28Q143.86 6.94 143.92 6.72L143.92 6.72L142.94 6.72L142.94 6.72Q143.00 6.94 143.00 7.28L143.00 7.28L143.00 7.28Q143.00 7.60 142.94 7.84L142.94 7.84L142.52 7.84L142.52 7.84Q142.58 8.06 142.58 8.40L142.58 8.40L142.58 8.40Q142.58 8.72 142.52 8.96L142.52 8.96L142.52 8.96Q142.58 9.18 142.58 9.52L142.58 9.52L142.58 9.52Q142.58 9.84 142.52 10.08L142.52 10.08L143.36 10.08L143.36 10.08Q143.42 10.30 143.42 10.64L143.42 10.64L143.42 10.64Q143.42 10.96 143.36 11.20L143.36 11.20L140.56 11.20L140.56 11.20Q140.50 10.96 140.50 10.64L140.50 10.64L140.50 10.64Q140.50 10.30 140.56 10.08L140.56 10.08L141.40 10.08L141.40 10.08Q141.34 9.84 141.34 9.52L141.34 9.52L141.34 9.52Q141.34 9.18 141.40 8.96L141.40 8.96L141.40 8.96Q141.34 8.72 141.34 8.40L141.34 8.40L141.34 8.40Q141.34 8.06 141.40 7.84L141.40 7.84L141.40 7.84Q141.34 7.60 141.34 7.28L141.34 7.28L141.34 7.28Q141.34 6.94 141.40 6.72L141.40 6.72L140.56 6.72L140.56 6.72Q140.50 6.48 140.50 6.16L140.50 6.16L140.50 6.16Q140.50 5.82 140.56 5.60L140.56 5.60L141.96 5.60L141.96 5.60Q142.02 5.82 142.02 6.16L142.02 6.16L142.02 6.16Q142.02 6.48 141.96 6.72L141.96 6.72L142.52 6.72L142.52 6.72Q142.46 6.48 142.46 6.16L142.46 6.16L142.46 6.16Q142.46 5.82 142.52 5.60L142.52 5.60L144.62 5.60L144.62 5.60Q144.68 5.82 144.68 6.16L144.68 6.16L144.68 6.16Q144.68 6.48 144.62 6.72L144.62 6.72L145.04 6.72ZM156.24 6.72L156.24 6.72Q156.30 6.94 156.30 7.28L156.30 7.28L156.30 7.28Q156.30 7.60 156.24 7.84L156.24 7.84L156.24 7.84Q156.30 8.06 156.30 8.40L156.30 8.40L156.30 8.40Q156.30 8.72 156.24 8.96L156.24 8.96L155.82 8.96L155.82 8.96Q155.88 9.18 155.88 9.52L155.88 9.52L155.88 9.52Q155.88 9.84 155.82 10.08L155.82 10.08L155.12 10.08L155.12 10.08Q155.18 10.30 155.18 10.64L155.18 10.64L155.18 10.64Q155.18 10.96 155.12 11.20L155.12 11.20L152.88 11.20L152.88 11.20Q152.82 10.96 152.82 10.64L152.82 10.64L152.82 10.64Q152.82 10.30 152.88 10.08L152.88 10.08L152.18 10.08L152.18 10.08Q152.12 9.84 152.12 9.52L152.12 9.52L152.12 9.52Q152.12 9.18 152.18 8.96L152.18 8.96L151.76 8.96L151.76 8.96Q151.70 8.72 151.70 8.40L151.70 8.40L151.70 8.40Q151.70 8.06 151.76 7.84L151.76 7.84L151.76 7.84Q151.70 7.60 151.70 7.28L151.70 7.28L151.70 7.28Q151.70 6.94 151.76 6.72L151.76 6.72L151.76 6.72Q151.70 6.48 151.70 6.16L151.70 6.16L151.70 6.16Q151.70 5.82 151.76 5.60L151.76 5.60L152.18 5.60L152.18 5.60Q152.12 5.36 152.12 5.04L152.12 5.04L152.12 5.04Q152.12 4.70 152.18 4.48L152.18 4.48L152.88 4.48L152.88 4.48Q152.82 4.24 152.82 3.92L152.82 3.92L152.82 3.92Q152.82 3.58 152.88 3.36L152.88 3.36L155.12 3.36L155.12 3.36Q155.18 3.58 155.18 3.92L155.18 3.92L155.18 3.92Q155.18 4.24 155.12 4.48L155.12 4.48L155.82 4.48L155.82 4.48Q155.88 4.70 155.88 5.04L155.88 5.04L155.88 5.04Q155.88 5.36 155.82 5.60L155.82 5.60L156.24 5.60L156.24 5.60Q156.30 5.82 156.30 6.16L156.30 6.16L156.30 6.16Q156.30 6.48 156.24 6.72L156.24 6.72ZM155.12 8.96L155.12 8.96Q155.06 8.72 155.06 8.40L155.06 8.40L155.06 8.40Q155.06 8.06 155.12 7.84L155.12 7.84L155.12 7.84Q155.06 7.60 155.06 7.28L155.06 7.28L155.06 7.28Q155.06 6.94 155.12 6.72L155.12 6.72L155.12 6.72Q155.06 6.48 155.06 6.16L155.06 6.16L155.06 6.16Q155.06 5.82 155.12 5.60L155.12 5.60L154.70 5.60L154.70 5.60Q154.64 5.36 154.64 5.04L154.64 5.04L154.64 5.04Q154.64 4.70 154.70 4.48L154.70 4.48L153.30 4.48L153.30 4.48Q153.36 4.70 153.36 5.04L153.36 5.04L153.36 5.04Q153.36 5.36 153.30 5.60L153.30 5.60L152.88 5.60L152.88 5.60Q152.94 5.82 152.94 6.16L152.94 6.16L152.94 6.16Q152.94 6.48 152.88 6.72L152.88 6.72L152.88 6.72Q152.94 6.94 152.94 7.28L152.94 7.28L152.94 7.28Q152.94 7.60 152.88 7.84L152.88 7.84L152.88 7.84Q152.94 8.06 152.94 8.40L152.94 8.40L152.94 8.40Q152.94 8.72 152.88 8.96L152.88 8.96L153.30 8.96L153.30 8.96Q153.36 9.18 153.36 9.52L153.36 9.52L153.36 9.52Q153.36 9.84 153.30 10.08L153.30 10.08L154.70 10.08L154.70 10.08Q154.64 9.84 154.64 9.52L154.64 9.52L154.64 9.52Q154.64 9.18 154.70 8.96L154.70 8.96L155.12 8.96ZM161.84 4.48L161.84 4.48Q161.90 4.70 161.90 5.04L161.90 5.04L161.90 5.04Q161.90 5.36 161.84 5.60L161.84 5.60L161.84 5.60Q161.90 5.82 161.90 6.16L161.90 6.16L161.90 6.16Q161.90 6.48 161.84 6.72L161.84 6.72L161.84 6.72Q161.90 6.94 161.90 7.28L161.90 7.28L161.90 7.28Q161.90 7.60 161.84 7.84L161.84 7.84L161.84 7.84Q161.90 8.06 161.90 8.40L161.90 8.40L161.90 8.40Q161.90 8.72 161.84 8.96L161.84 8.96L161.84 8.96Q161.90 9.18 161.90 9.52L161.90 9.52L161.90 9.52Q161.90 9.84 161.84 10.08L161.84 10.08L161.84 10.08Q161.90 10.30 161.90 10.64L161.90 10.64L161.90 10.64Q161.90 10.96 161.84 11.20L161.84 11.20L160.72 11.20L160.72 11.20Q160.66 10.96 160.66 10.64L160.66 10.64L160.66 10.64Q160.66 10.30 160.72 10.08L160.72 10.08L160.30 10.08L160.30 10.08Q160.24 9.84 160.24 9.52L160.24 9.52L160.24 9.52Q160.24 9.18 160.30 8.96L160.30 8.96L160.72 8.96L160.72 8.96Q160.66 8.72 160.66 8.40L160.66 8.40L160.66 8.40Q160.66 8.06 160.72 7.84L160.72 7.84L160.30 7.84L160.30 7.84Q160.24 7.60 160.24 7.28L160.24 7.28L160.24 7.28Q160.24 6.94 160.30 6.72L160.30 6.72L160.72 6.72L160.72 6.72Q160.66 6.48 160.66 6.16L160.66 6.16L160.66 6.16Q160.66 5.82 160.72 5.60L160.72 5.60L160.72 5.60Q160.66 5.36 160.66 5.04L160.66 5.04L160.66 5.04Q160.66 4.70 160.72 4.48L160.72 4.48L160.72 4.48Q160.66 4.24 160.66 3.92L160.66 3.92L160.66 3.92Q160.66 3.58 160.72 3.36L160.72 3.36L161.84 3.36L161.84 3.36Q161.90 3.58 161.90 3.92L161.90 3.92L161.90 3.92Q161.90 4.24 161.84 4.48L161.84 4.48ZM160.08 6.16L160.08 6.16Q160.08 6.48 160.02 6.72L160.02 6.72L158.62 6.72L158.62 6.72Q158.68 6.94 158.68 7.28L158.68 7.28L158.68 7.28Q158.68 7.60 158.62 7.84L158.62 7.84L158.20 7.84L158.20 7.84Q158.26 8.06 158.26 8.40L158.26 8.40L158.26 8.40Q158.26 8.72 158.20 8.96L158.20 8.96L158.62 8.96L158.62 8.96Q158.68 9.18 158.68 9.52L158.68 9.52L158.68 9.52Q158.68 9.84 158.62 10.08L158.62 10.08L160.02 10.08L160.02 10.08Q160.08 10.30 160.08 10.64L160.08 10.64L160.08 10.64Q160.08 10.96 160.02 11.20L160.02 11.20L158.48 11.20L158.48 11.20Q158.42 10.96 158.42 10.64L158.42 10.64L158.42 10.64Q158.42 10.30 158.48 10.08L158.48 10.08L157.78 10.08L157.78 10.08Q157.72 9.84 157.72 9.52L157.72 9.52L157.72 9.52Q157.72 9.18 157.78 8.96L157.78 8.96L157.36 8.96L157.36 8.96Q157.30 8.72 157.30 8.40L157.30 8.40L157.30 8.40Q157.30 8.06 157.36 7.84L157.36 7.84L157.78 7.84L157.78 7.84Q157.72 7.60 157.72 7.28L157.72 7.28L157.72 7.28Q157.72 6.94 157.78 6.72L157.78 6.72L158.48 6.72L158.48 6.72Q158.42 6.48 158.42 6.16L158.42 6.16L158.42 6.16Q158.42 5.82 158.48 5.60L158.48 5.60L160.02 5.60L160.02 5.60Q160.08 5.82 160.08 6.16L160.08 6.16ZM167.50 7.28L167.50 7.28Q167.50 7.60 167.44 7.84L167.44 7.84L167.44 7.84Q167.50 8.06 167.50 8.40L167.50 8.40L167.50 8.40Q167.50 8.72 167.44 8.96L167.44 8.96L164.50 8.96L164.50 8.96Q164.56 9.18 164.56 9.52L164.56 9.52L164.56 9.52Q164.56 9.84 164.50 10.08L164.50 10.08L166.88 10.08L166.88 10.08Q166.94 10.30 166.94 10.64L166.94 10.64L166.94 10.64Q166.94 10.96 166.88 11.20L166.88 11.20L164.08 11.20L164.08 11.20Q164.02 10.96 164.02 10.64L164.02 10.64L164.02 10.64Q164.02 10.30 164.08 10.08L164.08 10.08L163.38 10.08L163.38 10.08Q163.32 9.84 163.32 9.52L163.32 9.52L163.32 9.52Q163.32 9.18 163.38 8.96L163.38 8.96L162.96 8.96L162.96 8.96Q162.90 8.72 162.90 8.40L162.90 8.40L162.90 8.40Q162.90 8.06 162.96 7.84L162.96 7.84L163.38 7.84L163.38 7.84Q163.32 7.60 163.32 7.28L163.32 7.28L163.32 7.28Q163.32 6.94 163.38 6.72L163.38 6.72L164.08 6.72L164.08 6.72Q164.02 6.48 164.02 6.16L164.02 6.16L164.02 6.16Q164.02 5.82 164.08 5.60L164.08 5.60L166.88 5.60L166.88 5.60Q166.94 5.82 166.94 6.16L166.94 6.16L166.94 6.16Q166.94 6.48 166.88 6.72L166.88 6.72L167.44 6.72L167.44 6.72Q167.50 6.94 167.50 7.28L167.50 7.28ZM166.32 7.84L166.32 7.84Q166.26 7.60 166.26 7.28L166.26 7.28L166.26 7.28Q166.26 6.94 166.32 6.72L166.32 6.72L164.50 6.72L164.50 6.72Q164.56 6.94 164.56 7.28L164.56 7.28L164.56 7.28Q164.56 7.60 164.50 7.84L164.50 7.84L166.32 7.84ZM173.04 6.72L173.04 6.72Q173.10 6.94 173.10 7.28L173.10 7.28L173.10 7.28Q173.10 7.60 173.04 7.84L173.04 7.84L171.92 7.84L171.92 7.84Q171.86 7.60 171.86 7.28L171.86 7.28L171.86 7.28Q171.86 6.94 171.92 6.72L171.92 6.72L170.94 6.72L170.94 6.72Q171.00 6.94 171.00 7.28L171.00 7.28L171.00 7.28Q171.00 7.60 170.94 7.84L170.94 7.84L170.52 7.84L170.52 7.84Q170.58 8.06 170.58 8.40L170.58 8.40L170.58 8.40Q170.58 8.72 170.52 8.96L170.52 8.96L170.52 8.96Q170.58 9.18 170.58 9.52L170.58 9.52L170.58 9.52Q170.58 9.84 170.52 10.08L170.52 10.08L171.36 10.08L171.36 10.08Q171.42 10.30 171.42 10.64L171.42 10.64L171.42 10.64Q171.42 10.96 171.36 11.20L171.36 11.20L168.56 11.20L168.56 11.20Q168.50 10.96 168.50 10.64L168.50 10.64L168.50 10.64Q168.50 10.30 168.56 10.08L168.56 10.08L169.40 10.08L169.40 10.08Q169.34 9.84 169.34 9.52L169.34 9.52L169.34 9.52Q169.34 9.18 169.40 8.96L169.40 8.96L169.40 8.96Q169.34 8.72 169.34 8.40L169.34 8.40L169.34 8.40Q169.34 8.06 169.40 7.84L169.40 7.84L169.40 7.84Q169.34 7.60 169.34 7.28L169.34 7.28L169.34 7.28Q169.34 6.94 169.40 6.72L169.40 6.72L168.56 6.72L168.56 6.72Q168.50 6.48 168.50 6.16L168.50 6.16L168.50 6.16Q168.50 5.82 168.56 5.60L168.56 5.60L169.96 5.60L169.96 5.60Q170.02 5.82 170.02 6.16L170.02 6.16L170.02 6.16Q170.02 6.48 169.96 6.72L169.96 6.72L170.52 6.72L170.52 6.72Q170.46 6.48 170.46 6.16L170.46 6.16L170.46 6.16Q170.46 5.82 170.52 5.60L170.52 5.60L172.62 5.60L172.62 5.60Q172.68 5.82 172.68 6.16L172.68 6.16L172.68 6.16Q172.68 6.48 172.62 6.72L172.62 6.72L173.04 6.72Z"></path></g></svg>