<svg data-v-423bf9ae="" xmlns="http://www.w3.org/2000/svg" viewBox="0 0 1491.503621989894 193" class="fontAboveSlogan"><!----><!----><!----><g data-v-423bf9ae="" id="8e317879-6cdd-4580-9e4f-3a93922425dd" fill="black" transform="matrix(15.306121826171875,0,0,15.306121826171875,446.5,-51.06856155395508)"><path d="M3.92 8.96L5.04 8.96L5.04 8.96Q5.10 9.18 5.10 9.52L5.10 9.52L5.10 9.52Q5.10 9.84 5.04 10.08L5.04 10.08L4.48 10.08L4.48 10.08Q4.54 10.30 4.54 10.64L4.54 10.64L4.54 10.64Q4.54 10.96 4.48 11.20L4.48 11.20L1.68 11.20L1.68 11.20Q1.62 10.96 1.62 10.64L1.62 10.64L1.62 10.64Q1.62 10.30 1.68 10.08L1.68 10.08L1.12 10.08L1.12 10.08Q1.06 9.84 1.06 9.52L1.06 9.52L1.06 9.52Q1.06 9.18 1.12 8.96L1.12 8.96L0.56 8.96L0.56 8.96Q0.50 8.72 0.50 8.40L0.50 8.40L0.50 8.40Q0.50 8.06 0.56 7.84L0.56 7.84L0.56 7.84Q0.50 7.60 0.50 7.28L0.50 7.28L0.50 7.28Q0.50 6.94 0.56 6.72L0.56 6.72L0.56 6.72Q0.50 6.48 0.50 6.16L0.50 6.16L0.50 6.16Q0.50 5.82 0.56 5.60L0.56 5.60L1.12 5.60L1.12 5.60Q1.06 5.36 1.06 5.04L1.06 5.04L1.06 5.04Q1.06 4.70 1.12 4.48L1.12 4.48L1.68 4.48L1.68 4.48Q1.62 4.24 1.62 3.92L1.62 3.92L1.62 3.92Q1.62 3.58 1.68 3.36L1.68 3.36L4.48 3.36L4.48 3.36Q4.54 3.58 4.54 3.92L4.54 3.92L4.54 3.92Q4.54 4.24 4.48 4.48L4.48 4.48L5.04 4.48L5.04 4.48Q5.10 4.70 5.10 5.04L5.10 5.04L5.10 5.04Q5.10 5.36 5.04 5.60L5.04 5.60L3.92 5.60L3.92 5.60Q3.86 5.36 3.86 5.04L3.86 5.04L3.86 5.04Q3.86 4.70 3.92 4.48L3.92 4.48L2.24 4.48L2.24 4.48Q2.30 4.70 2.30 5.04L2.30 5.04L2.30 5.04Q2.30 5.36 2.24 5.60L2.24 5.60L1.68 5.60L1.68 5.60Q1.74 5.82 1.74 6.16L1.74 6.16L1.74 6.16Q1.74 6.48 1.68 6.72L1.68 6.72L1.68 6.72Q1.74 6.94 1.74 7.28L1.74 7.28L1.74 7.28Q1.74 7.60 1.68 7.84L1.68 7.84L1.68 7.84Q1.74 8.06 1.74 8.40L1.74 8.40L1.74 8.40Q1.74 8.72 1.68 8.96L1.68 8.96L2.24 8.96L2.24 8.96Q2.30 9.18 2.30 9.52L2.30 9.52L2.30 9.52Q2.30 9.84 2.24 10.08L2.24 10.08L3.92 10.08L3.92 10.08Q3.86 9.84 3.86 9.52L3.86 9.52L3.86 9.52Q3.86 9.18 3.92 8.96L3.92 8.96ZM9.52 8.96L10.64 8.96L10.64 8.96Q10.70 9.18 10.70 9.52L10.70 9.52L10.70 9.52Q10.70 9.84 10.64 10.08L10.64 10.08L10.08 10.08L10.08 10.08Q10.14 10.30 10.14 10.64L10.14 10.64L10.14 10.64Q10.14 10.96 10.08 11.20L10.08 11.20L7.28 11.20L7.28 11.20Q7.22 10.96 7.22 10.64L7.22 10.64L7.22 10.64Q7.22 10.30 7.28 10.08L7.28 10.08L6.72 10.08L6.72 10.08Q6.66 9.84 6.66 9.52L6.66 9.52L6.66 9.52Q6.66 9.18 6.72 8.96L6.72 8.96L6.16 8.96L6.16 8.96Q6.10 8.72 6.10 8.40L6.10 8.40L6.10 8.40Q6.10 8.06 6.16 7.84L6.16 7.84L6.16 7.84Q6.10 7.60 6.10 7.28L6.10 7.28L6.10 7.28Q6.10 6.94 6.16 6.72L6.16 6.72L6.16 6.72Q6.10 6.48 6.10 6.16L6.10 6.16L6.10 6.16Q6.10 5.82 6.16 5.60L6.16 5.60L6.72 5.60L6.72 5.60Q6.66 5.36 6.66 5.04L6.66 5.04L6.66 5.04Q6.66 4.70 6.72 4.48L6.72 4.48L7.28 4.48L7.28 4.48Q7.22 4.24 7.22 3.92L7.22 3.92L7.22 3.92Q7.22 3.58 7.28 3.36L7.28 3.36L10.08 3.36L10.08 3.36Q10.14 3.58 10.14 3.92L10.14 3.92L10.14 3.92Q10.14 4.24 10.08 4.48L10.08 4.48L10.64 4.48L10.64 4.48Q10.70 4.70 10.70 5.04L10.70 5.04L10.70 5.04Q10.70 5.36 10.64 5.60L10.64 5.60L9.52 5.60L9.52 5.60Q9.46 5.36 9.46 5.04L9.46 5.04L9.46 5.04Q9.46 4.70 9.52 4.48L9.52 4.48L7.84 4.48L7.84 4.48Q7.90 4.70 7.90 5.04L7.90 5.04L7.90 5.04Q7.90 5.36 7.84 5.60L7.84 5.60L7.28 5.60L7.28 5.60Q7.34 5.82 7.34 6.16L7.34 6.16L7.34 6.16Q7.34 6.48 7.28 6.72L7.28 6.72L7.28 6.72Q7.34 6.94 7.34 7.28L7.34 7.28L7.34 7.28Q7.34 7.60 7.28 7.84L7.28 7.84L7.28 7.84Q7.34 8.06 7.34 8.40L7.34 8.40L7.34 8.40Q7.34 8.72 7.28 8.96L7.28 8.96L7.84 8.96L7.84 8.96Q7.90 9.18 7.90 9.52L7.90 9.52L7.90 9.52Q7.90 9.84 7.84 10.08L7.84 10.08L9.52 10.08L9.52 10.08Q9.46 9.84 9.46 9.52L9.46 9.52L9.46 9.52Q9.46 9.18 9.52 8.96L9.52 8.96ZM15.12 8.96L16.24 8.96L16.24 8.96Q16.30 9.18 16.30 9.52L16.30 9.52L16.30 9.52Q16.30 9.84 16.24 10.08L16.24 10.08L15.68 10.08L15.68 10.08Q15.74 10.30 15.74 10.64L15.74 10.64L15.74 10.64Q15.74 10.96 15.68 11.20L15.68 11.20L12.88 11.20L12.88 11.20Q12.82 10.96 12.82 10.64L12.82 10.64L12.82 10.64Q12.82 10.30 12.88 10.08L12.88 10.08L12.32 10.08L12.32 10.08Q12.26 9.84 12.26 9.52L12.26 9.52L12.26 9.52Q12.26 9.18 12.32 8.96L12.32 8.96L11.76 8.96L11.76 8.96Q11.70 8.72 11.70 8.40L11.70 8.40L11.70 8.40Q11.70 8.06 11.76 7.84L11.76 7.84L11.76 7.84Q11.70 7.60 11.70 7.28L11.70 7.28L11.70 7.28Q11.70 6.94 11.76 6.72L11.76 6.72L11.76 6.72Q11.70 6.48 11.70 6.16L11.70 6.16L11.70 6.16Q11.70 5.82 11.76 5.60L11.76 5.60L12.32 5.60L12.32 5.60Q12.26 5.36 12.26 5.04L12.26 5.04L12.26 5.04Q12.26 4.70 12.32 4.48L12.32 4.48L12.88 4.48L12.88 4.48Q12.82 4.24 12.82 3.92L12.82 3.92L12.82 3.92Q12.82 3.58 12.88 3.36L12.88 3.36L15.68 3.36L15.68 3.36Q15.74 3.58 15.74 3.92L15.74 3.92L15.74 3.92Q15.74 4.24 15.68 4.48L15.68 4.48L16.24 4.48L16.24 4.48Q16.30 4.70 16.30 5.04L16.30 5.04L16.30 5.04Q16.30 5.36 16.24 5.60L16.24 5.60L15.12 5.60L15.12 5.60Q15.06 5.36 15.06 5.04L15.06 5.04L15.06 5.04Q15.06 4.70 15.12 4.48L15.12 4.48L13.44 4.48L13.44 4.48Q13.50 4.70 13.50 5.04L13.50 5.04L13.50 5.04Q13.50 5.36 13.44 5.60L13.44 5.60L12.88 5.60L12.88 5.60Q12.94 5.82 12.94 6.16L12.94 6.16L12.94 6.16Q12.94 6.48 12.88 6.72L12.88 6.72L12.88 6.72Q12.94 6.94 12.94 7.28L12.94 7.28L12.94 7.28Q12.94 7.60 12.88 7.84L12.88 7.84L12.88 7.84Q12.94 8.06 12.94 8.40L12.94 8.40L12.94 8.40Q12.94 8.72 12.88 8.96L12.88 8.96L13.44 8.96L13.44 8.96Q13.50 9.18 13.50 9.52L13.50 9.52L13.50 9.52Q13.50 9.84 13.44 10.08L13.44 10.08L15.12 10.08L15.12 10.08Q15.06 9.84 15.06 9.52L15.06 9.52L15.06 9.52Q15.06 9.18 15.12 8.96L15.12 8.96ZM21.90 8.40L21.90 8.40Q21.90 8.72 21.84 8.96L21.84 8.96L21.42 8.96L21.42 8.96Q21.48 9.18 21.48 9.52L21.48 9.52L21.48 9.52Q21.48 9.84 21.42 10.08L21.42 10.08L20.72 10.08L20.72 10.08Q20.78 10.30 20.78 10.64L20.78 10.64L20.78 10.64Q20.78 10.96 20.72 11.20L20.72 11.20L18.48 11.20L18.48 11.20Q18.42 10.96 18.42 10.64L18.42 10.64L18.42 10.64Q18.42 10.30 18.48 10.08L18.48 10.08L17.78 10.08L17.78 10.08Q17.72 9.84 17.72 9.52L17.72 9.52L17.72 9.52Q17.72 9.18 17.78 8.96L17.78 8.96L17.36 8.96L17.36 8.96Q17.30 8.72 17.30 8.40L17.30 8.40L17.30 8.40Q17.30 8.06 17.36 7.84L17.36 7.84L17.78 7.84L17.78 7.84Q17.72 7.60 17.72 7.28L17.72 7.28L17.72 7.28Q17.72 6.94 17.78 6.72L17.78 6.72L18.48 6.72L18.48 6.72Q18.42 6.48 18.42 6.16L18.42 6.16L18.42 6.16Q18.42 5.82 18.48 5.60L18.48 5.60L20.72 5.60L20.72 5.60Q20.78 5.82 20.78 6.16L20.78 6.16L20.78 6.16Q20.78 6.48 20.72 6.72L20.72 6.72L21.42 6.72L21.42 6.72Q21.48 6.94 21.48 7.28L21.48 7.28L21.48 7.28Q21.48 7.60 21.42 7.84L21.42 7.84L21.84 7.84L21.84 7.84Q21.90 8.06 21.90 8.40L21.90 8.40ZM20.30 8.96L20.72 8.96L20.72 8.96Q20.66 8.72 20.66 8.40L20.66 8.40L20.66 8.40Q20.66 8.06 20.72 7.84L20.72 7.84L20.30 7.84L20.30 7.84Q20.24 7.60 20.24 7.28L20.24 7.28L20.24 7.28Q20.24 6.94 20.30 6.72L20.30 6.72L18.90 6.72L18.90 6.72Q18.96 6.94 18.96 7.28L18.96 7.28L18.96 7.28Q18.96 7.60 18.90 7.84L18.90 7.84L18.48 7.84L18.48 7.84Q18.54 8.06 18.54 8.40L18.54 8.40L18.54 8.40Q18.54 8.72 18.48 8.96L18.48 8.96L18.90 8.96L18.90 8.96Q18.96 9.18 18.96 9.52L18.96 9.52L18.96 9.52Q18.96 9.84 18.90 10.08L18.90 10.08L20.30 10.08L20.30 10.08Q20.24 9.84 20.24 9.52L20.24 9.52L20.24 9.52Q20.24 9.18 20.30 8.96L20.30 8.96ZM27.44 4.48L27.44 4.48Q27.50 4.70 27.50 5.04L27.50 5.04L27.50 5.04Q27.50 5.36 27.44 5.60L27.44 5.60L27.44 5.60Q27.50 5.82 27.50 6.16L27.50 6.16L27.50 6.16Q27.50 6.48 27.44 6.72L27.44 6.72L27.44 6.72Q27.50 6.94 27.50 7.28L27.50 7.28L27.50 7.28Q27.50 7.60 27.44 7.84L27.44 7.84L27.44 7.84Q27.50 8.06 27.50 8.40L27.50 8.40L27.50 8.40Q27.50 8.72 27.44 8.96L27.44 8.96L27.44 8.96Q27.50 9.18 27.50 9.52L27.50 9.52L27.50 9.52Q27.50 9.84 27.44 10.08L27.44 10.08L27.44 10.08Q27.50 10.30 27.50 10.64L27.50 10.64L27.50 10.64Q27.50 10.96 27.44 11.20L27.44 11.20L26.32 11.20L26.32 11.20Q26.26 10.96 26.26 10.64L26.26 10.64L26.26 10.64Q26.26 10.30 26.32 10.08L26.32 10.08L25.90 10.08L25.90 10.08Q25.84 9.84 25.84 9.52L25.84 9.52L25.84 9.52Q25.84 9.18 25.90 8.96L25.90 8.96L26.32 8.96L26.32 8.96Q26.26 8.72 26.26 8.40L26.26 8.40L26.26 8.40Q26.26 8.06 26.32 7.84L26.32 7.84L25.90 7.84L25.90 7.84Q25.84 7.60 25.84 7.28L25.84 7.28L25.84 7.28Q25.84 6.94 25.90 6.72L25.90 6.72L26.32 6.72L26.32 6.72Q26.26 6.48 26.26 6.16L26.26 6.16L26.26 6.16Q26.26 5.82 26.32 5.60L26.32 5.60L26.32 5.60Q26.26 5.36 26.26 5.04L26.26 5.04L26.26 5.04Q26.26 4.70 26.32 4.48L26.32 4.48L26.32 4.48Q26.26 4.24 26.26 3.92L26.26 3.92L26.26 3.92Q26.26 3.58 26.32 3.36L26.32 3.36L27.44 3.36L27.44 3.36Q27.50 3.58 27.50 3.92L27.50 3.92L27.50 3.92Q27.50 4.24 27.44 4.48L27.44 4.48ZM25.68 6.16L25.68 6.16Q25.68 6.48 25.62 6.72L25.62 6.72L24.22 6.72L24.22 6.72Q24.28 6.94 24.28 7.28L24.28 7.28L24.28 7.28Q24.28 7.60 24.22 7.84L24.22 7.84L23.80 7.84L23.80 7.84Q23.86 8.06 23.86 8.40L23.86 8.40L23.86 8.40Q23.86 8.72 23.80 8.96L23.80 8.96L24.22 8.96L24.22 8.96Q24.28 9.18 24.28 9.52L24.28 9.52L24.28 9.52Q24.28 9.84 24.22 10.08L24.22 10.08L25.62 10.08L25.62 10.08Q25.68 10.30 25.68 10.64L25.68 10.64L25.68 10.64Q25.68 10.96 25.62 11.20L25.62 11.20L24.08 11.20L24.08 11.20Q24.02 10.96 24.02 10.64L24.02 10.64L24.02 10.64Q24.02 10.30 24.08 10.08L24.08 10.08L23.38 10.08L23.38 10.08Q23.32 9.84 23.32 9.52L23.32 9.52L23.32 9.52Q23.32 9.18 23.38 8.96L23.38 8.96L22.96 8.96L22.96 8.96Q22.90 8.72 22.90 8.40L22.90 8.40L22.90 8.40Q22.90 8.06 22.96 7.84L22.96 7.84L23.38 7.84L23.38 7.84Q23.32 7.60 23.32 7.28L23.32 7.28L23.32 7.28Q23.32 6.94 23.38 6.72L23.38 6.72L24.08 6.72L24.08 6.72Q24.02 6.48 24.02 6.16L24.02 6.16L24.02 6.16Q24.02 5.82 24.08 5.60L24.08 5.60L25.62 5.60L25.62 5.60Q25.68 5.82 25.68 6.16L25.68 6.16ZM33.10 7.28L33.10 7.28Q33.10 7.60 33.04 7.84L33.04 7.84L33.04 7.84Q33.10 8.06 33.10 8.40L33.10 8.40L33.10 8.40Q33.10 8.72 33.04 8.96L33.04 8.96L30.10 8.96L30.10 8.96Q30.16 9.18 30.16 9.52L30.16 9.52L30.16 9.52Q30.16 9.84 30.10 10.08L30.10 10.08L32.48 10.08L32.48 10.08Q32.54 10.30 32.54 10.64L32.54 10.64L32.54 10.64Q32.54 10.96 32.48 11.20L32.48 11.20L29.68 11.20L29.68 11.20Q29.62 10.96 29.62 10.64L29.62 10.64L29.62 10.64Q29.62 10.30 29.68 10.08L29.68 10.08L28.98 10.08L28.98 10.08Q28.92 9.84 28.92 9.52L28.92 9.52L28.92 9.52Q28.92 9.18 28.98 8.96L28.98 8.96L28.56 8.96L28.56 8.96Q28.50 8.72 28.50 8.40L28.50 8.40L28.50 8.40Q28.50 8.06 28.56 7.84L28.56 7.84L28.98 7.84L28.98 7.84Q28.92 7.60 28.92 7.28L28.92 7.28L28.92 7.28Q28.92 6.94 28.98 6.72L28.98 6.72L29.68 6.72L29.68 6.72Q29.62 6.48 29.62 6.16L29.62 6.16L29.62 6.16Q29.62 5.82 29.68 5.60L29.68 5.60L32.48 5.60L32.48 5.60Q32.54 5.82 32.54 6.16L32.54 6.16L32.54 6.16Q32.54 6.48 32.48 6.72L32.48 6.72L33.04 6.72L33.04 6.72Q33.10 6.94 33.10 7.28L33.10 7.28ZM31.92 7.84L31.92 7.84Q31.86 7.60 31.86 7.28L31.86 7.28L31.86 7.28Q31.86 6.94 31.92 6.72L31.92 6.72L30.10 6.72L30.10 6.72Q30.16 6.94 30.16 7.28L30.16 7.28L30.16 7.28Q30.16 7.60 30.10 7.84L30.10 7.84L31.92 7.84ZM38.64 6.72L38.64 6.72Q38.70 6.94 38.70 7.28L38.70 7.28L38.70 7.28Q38.70 7.60 38.64 7.84L38.64 7.84L37.52 7.84L37.52 7.84Q37.46 7.60 37.46 7.28L37.46 7.28L37.46 7.28Q37.46 6.94 37.52 6.72L37.52 6.72L36.54 6.72L36.54 6.72Q36.60 6.94 36.60 7.28L36.60 7.28L36.60 7.28Q36.60 7.60 36.54 7.84L36.54 7.84L36.12 7.84L36.12 7.84Q36.18 8.06 36.18 8.40L36.18 8.40L36.18 8.40Q36.18 8.72 36.12 8.96L36.12 8.96L36.12 8.96Q36.18 9.18 36.18 9.52L36.18 9.52L36.18 9.52Q36.18 9.84 36.12 10.08L36.12 10.08L36.96 10.08L36.96 10.08Q37.02 10.30 37.02 10.64L37.02 10.64L37.02 10.64Q37.02 10.96 36.96 11.20L36.96 11.20L34.16 11.20L34.16 11.20Q34.10 10.96 34.10 10.64L34.10 10.64L34.10 10.64Q34.10 10.30 34.16 10.08L34.16 10.08L35 10.08L35 10.08Q34.94 9.84 34.94 9.52L34.94 9.52L34.94 9.52Q34.94 9.18 35 8.96L35 8.96L35 8.96Q34.94 8.72 34.94 8.40L34.94 8.40L34.94 8.40Q34.94 8.06 35 7.84L35 7.84L35 7.84Q34.94 7.60 34.94 7.28L34.94 7.28L34.94 7.28Q34.94 6.94 35 6.72L35 6.72L34.16 6.72L34.16 6.72Q34.10 6.48 34.10 6.16L34.10 6.16L34.10 6.16Q34.10 5.82 34.16 5.60L34.16 5.60L35.56 5.60L35.56 5.60Q35.62 5.82 35.62 6.16L35.62 6.16L35.62 6.16Q35.62 6.48 35.56 6.72L35.56 6.72L36.12 6.72L36.12 6.72Q36.06 6.48 36.06 6.16L36.06 6.16L36.06 6.16Q36.06 5.82 36.12 5.60L36.12 5.60L38.22 5.60L38.22 5.60Q38.28 5.82 38.28 6.16L38.28 6.16L38.28 6.16Q38.28 6.48 38.22 6.72L38.22 6.72L38.64 6.72Z"></path></g><!----><!----><g data-v-423bf9ae="" id="3234b5f9-c095-44b0-a0d3-c4611f94fe1b" fill="black" transform="matrix(4.7732696533203125,0,0,4.7732696533203125,-4.343648910522461,124.98091125488281)"><path d="M0.91 1.68L0.91 11.48L1.96 11.48L1.96 7.45C1.96 6.19 2.91 5.32 4.07 5.32C5.22 5.32 6.03 6.16 6.03 7.43L6.03 11.48L7.08 11.48L7.08 7.41C7.08 5.42 5.73 4.37 4.28 4.37C3.15 4.37 2.46 4.90 1.96 5.57L1.96 1.68ZM18.79 4.37C16.74 4.37 15.40 5.98 15.40 7.98C15.40 9.98 16.74 11.59 18.79 11.59C19.95 11.59 20.78 11.12 21.29 10.36L21.29 11.48L22.34 11.48L22.34 4.48L21.29 4.48L21.29 5.61C20.78 4.86 19.95 4.37 18.79 4.37ZM18.93 10.64C17.37 10.64 16.45 9.42 16.45 7.98C16.45 6.54 17.37 5.32 18.93 5.32C20.48 5.32 21.35 6.54 21.35 7.98C21.35 9.42 20.48 10.64 18.93 10.64ZM34.31 10.64C32.76 10.64 31.78 9.42 31.78 7.98C31.78 6.54 32.76 5.32 34.31 5.32C35.31 5.32 36.02 5.88 36.34 6.68L37.48 6.68C37.07 5.32 35.83 4.37 34.17 4.37C32.07 4.37 30.73 5.98 30.73 7.98C30.73 9.98 32.07 11.59 34.17 11.59C35.83 11.59 37.07 10.64 37.48 9.28L36.34 9.28C36.02 10.08 35.31 10.64 34.31 10.64ZM51.67 4.48L50.20 4.48L46.83 7.95L46.83 1.68L45.78 1.68L45.78 11.48L46.83 11.48L46.83 9.27L48.15 7.97L50.60 11.48L51.88 11.48L48.86 7.24ZM62.58 10.64C61.17 10.64 60.26 9.65 60.10 8.40L65.97 8.40L65.97 7.98C65.97 5.98 64.64 4.37 62.50 4.37C60.35 4.37 59.02 5.98 59.02 7.98C59.02 9.98 60.42 11.59 62.57 11.59C64.23 11.59 65.27 10.72 65.76 9.46L64.61 9.46C64.23 10.16 63.56 10.64 62.58 10.64ZM62.50 5.32C63.84 5.32 64.68 6.23 64.88 7.42L60.12 7.42C60.31 6.23 61.15 5.32 62.50 5.32ZM77.88 4.37C76.15 4.37 75.45 5.73 75.31 6.20L75.31 4.48L74.26 4.48L74.26 11.48L75.31 11.48L75.31 8.40C75.31 6.86 76.26 5.42 77.83 5.42L77.95 5.42L77.95 4.37ZM88.52 4.37C86.72 4.37 85.78 5.11 85.78 6.37C85.78 8.93 90.44 7.84 90.44 9.59C90.44 10.54 89.22 10.70 88.65 10.70C87.29 10.70 86.76 10.00 86.69 9.28L85.60 9.28C85.67 10.51 86.69 11.59 88.63 11.59C90.37 11.59 91.49 10.85 91.49 9.49C91.49 6.86 86.83 7.95 86.83 6.27C86.83 5.59 87.40 5.26 88.49 5.26C89.67 5.26 90.12 5.75 90.20 6.36L91.27 6.36C91.14 5.33 90.37 4.37 88.52 4.37ZM103.39 11.59C105.43 11.59 106.78 9.98 106.78 7.98C106.78 5.98 105.43 4.37 103.39 4.37C102.23 4.37 101.40 4.84 100.88 5.60L100.88 4.48L99.83 4.48L99.83 14.25L100.88 14.25L100.88 10.35C101.40 11.10 102.23 11.59 103.39 11.59ZM103.25 5.32C104.80 5.32 105.73 6.54 105.73 7.98C105.73 9.42 104.80 10.64 103.25 10.64C101.70 10.64 100.83 9.42 100.83 7.98C100.83 6.54 101.70 5.32 103.25 5.32ZM118.10 4.37C116.06 4.37 114.72 5.98 114.72 7.98C114.72 9.98 116.06 11.59 118.10 11.59C119.27 11.59 120.09 11.12 120.61 10.36L120.61 11.48L121.66 11.48L121.66 4.48L120.61 4.48L120.61 5.61C120.09 4.86 119.27 4.37 118.10 4.37ZM118.24 10.64C116.69 10.64 115.77 9.42 115.77 7.98C115.77 6.54 116.69 5.32 118.24 5.32C119.80 5.32 120.67 6.54 120.67 7.98C120.67 9.42 119.80 10.64 118.24 10.64ZM133.63 10.64C132.08 10.64 131.10 9.42 131.10 7.98C131.10 6.54 132.08 5.32 133.63 5.32C134.62 5.32 135.34 5.88 135.66 6.68L136.79 6.68C136.39 5.32 135.14 4.37 133.49 4.37C131.39 4.37 130.05 5.98 130.05 7.98C130.05 9.98 131.39 11.59 133.49 11.59C135.14 11.59 136.39 10.64 136.79 9.28L135.66 9.28C135.34 10.08 134.62 10.64 133.63 10.64ZM148.22 10.64C146.80 10.64 145.89 9.65 145.74 8.40L151.61 8.40L151.61 7.98C151.61 5.98 150.28 4.37 148.13 4.37C145.99 4.37 144.66 5.98 144.66 7.98C144.66 9.98 146.06 11.59 148.20 11.59C149.87 11.59 150.91 10.72 151.40 9.46L150.25 9.46C149.87 10.16 149.20 10.64 148.22 10.64ZM148.13 5.32C149.48 5.32 150.32 6.23 150.51 7.42L145.75 7.42C145.95 6.23 146.79 5.32 148.13 5.32ZM172.83 4.37C170.79 4.37 169.44 5.98 169.44 7.98C169.44 9.98 170.79 11.59 172.83 11.59C173.99 11.59 174.82 11.12 175.34 10.36L175.34 11.48L176.39 11.48L176.39 4.48L175.34 4.48L175.34 5.61C174.82 4.86 173.99 4.37 172.83 4.37ZM172.97 10.64C171.42 10.64 170.49 9.42 170.49 7.98C170.49 6.54 171.42 5.32 172.97 5.32C174.52 5.32 175.39 6.54 175.39 7.98C175.39 9.42 174.52 10.64 172.97 10.64ZM185.21 4.48L185.21 11.48L186.26 11.48L186.26 7.45C186.26 6.19 187.21 5.32 188.37 5.32C189.52 5.32 190.33 6.16 190.33 7.43L190.33 11.48L191.38 11.48L191.38 7.41C191.38 5.42 190.02 4.37 188.58 4.37C187.45 4.37 186.76 4.90 186.26 5.57L186.26 4.48ZM213.07 4.37C211.02 4.37 209.68 5.98 209.68 7.98C209.68 9.98 211.02 11.59 213.07 11.59C214.23 11.59 215.05 11.12 215.57 10.36L215.57 11.48L216.62 11.48L216.62 1.68L215.57 1.68L215.57 5.61C215.05 4.86 214.23 4.37 213.07 4.37ZM213.21 10.64C211.65 10.64 210.73 9.42 210.73 7.98C210.73 6.54 211.65 5.32 213.21 5.32C214.76 5.32 215.63 6.54 215.63 7.98C215.63 9.42 214.76 10.64 213.21 10.64ZM228.56 10.64C227.15 10.64 226.24 9.65 226.09 8.40L231.95 8.40L231.95 7.98C231.95 5.98 230.62 4.37 228.48 4.37C226.34 4.37 225.01 5.98 225.01 7.98C225.01 9.98 226.41 11.59 228.55 11.59C230.22 11.59 231.25 10.72 231.74 9.46L230.59 9.46C230.22 10.16 229.54 10.64 228.56 10.64ZM228.48 5.32C229.82 5.32 230.66 6.23 230.86 7.42L226.10 7.42C226.30 6.23 227.14 5.32 228.48 5.32ZM243.87 4.37C242.13 4.37 241.43 5.73 241.29 6.20L241.29 4.48L240.24 4.48L240.24 11.48L241.29 11.48L241.29 8.40C241.29 6.86 242.24 5.42 243.81 5.42L243.94 5.42L243.94 4.37ZM266.39 2.10C263.58 2.10 261.69 4.21 261.69 6.85C261.69 9.48 263.58 11.59 266.39 11.59C269.21 11.59 271.10 9.48 271.10 6.85C271.10 4.21 269.21 2.10 266.39 2.10ZM266.39 10.57C264.14 10.57 262.74 8.93 262.74 6.85C262.74 4.76 264.14 3.12 266.39 3.12C268.65 3.12 270.05 4.76 270.05 6.85C270.05 8.93 268.65 10.57 266.39 10.57ZM282.51 4.37C280.46 4.37 279.12 5.98 279.12 7.98C279.12 9.98 280.46 11.59 282.51 11.59C283.67 11.59 284.49 11.12 285.01 10.36L285.01 11.48L286.06 11.48L286.06 1.68L285.01 1.68L285.01 5.61C284.49 4.86 283.67 4.37 282.51 4.37ZM282.65 10.64C281.09 10.64 280.17 9.42 280.17 7.98C280.17 6.54 281.09 5.32 282.65 5.32C284.20 5.32 285.07 6.54 285.07 7.98C285.07 9.42 284.20 10.64 282.65 10.64ZM298.00 10.64C296.59 10.64 295.68 9.65 295.53 8.40L301.39 8.40L301.39 7.98C301.39 5.98 300.06 4.37 297.92 4.37C295.78 4.37 294.45 5.98 294.45 7.98C294.45 9.98 295.85 11.59 297.99 11.59C299.66 11.59 300.69 10.72 301.18 9.46L300.03 9.46C299.66 10.16 298.98 10.64 298.00 10.64ZM297.92 5.32C299.26 5.32 300.10 6.23 300.30 7.42L295.54 7.42C295.74 6.23 296.58 5.32 297.92 5.32ZM313.31 4.37C311.57 4.37 310.87 5.73 310.73 6.20L310.73 4.48L309.68 4.48L309.68 11.48L310.73 11.48L310.73 8.40C310.73 6.86 311.68 5.42 313.25 5.42L313.38 5.42L313.38 4.37Z"></path></g></svg>