<svg data-v-423bf9ae="" xmlns="http://www.w3.org/2000/svg" viewBox="0 0 292.3469389244597 60" class="font"><!----><!----><!----><g data-v-423bf9ae="" id="f16d0609-3255-492e-a9ce-1ee4b00d0a84" fill="white" transform="matrix(7.6530609130859375,0,0,7.6530609130859375,-3.826519727706909,-25.71428108215332)"><path d="M3.92 8.96L5.04 8.96L5.04 8.96Q5.10 9.18 5.10 9.52L5.10 9.52L5.10 9.52Q5.10 9.84 5.04 10.08L5.04 10.08L4.48 10.08L4.48 10.08Q4.54 10.30 4.54 10.64L4.54 10.64L4.54 10.64Q4.54 10.96 4.48 11.20L4.48 11.20L1.68 11.20L1.68 11.20Q1.62 10.96 1.62 10.64L1.62 10.64L1.62 10.64Q1.62 10.30 1.68 10.08L1.68 10.08L1.12 10.08L1.12 10.08Q1.06 9.84 1.06 9.52L1.06 9.52L1.06 9.52Q1.06 9.18 1.12 8.96L1.12 8.96L0.56 8.96L0.56 8.96Q0.50 8.72 0.50 8.40L0.50 8.40L0.50 8.40Q0.50 8.06 0.56 7.84L0.56 7.84L0.56 7.84Q0.50 7.60 0.50 7.28L0.50 7.28L0.50 7.28Q0.50 6.94 0.56 6.72L0.56 6.72L0.56 6.72Q0.50 6.48 0.50 6.16L0.50 6.16L0.50 6.16Q0.50 5.82 0.56 5.60L0.56 5.60L1.12 5.60L1.12 5.60Q1.06 5.36 1.06 5.04L1.06 5.04L1.06 5.04Q1.06 4.70 1.12 4.48L1.12 4.48L1.68 4.48L1.68 4.48Q1.62 4.24 1.62 3.92L1.62 3.92L1.62 3.92Q1.62 3.58 1.68 3.36L1.68 3.36L4.48 3.36L4.48 3.36Q4.54 3.58 4.54 3.92L4.54 3.92L4.54 3.92Q4.54 4.24 4.48 4.48L4.48 4.48L5.04 4.48L5.04 4.48Q5.10 4.70 5.10 5.04L5.10 5.04L5.10 5.04Q5.10 5.36 5.04 5.60L5.04 5.60L3.92 5.60L3.92 5.60Q3.86 5.36 3.86 5.04L3.86 5.04L3.86 5.04Q3.86 4.70 3.92 4.48L3.92 4.48L2.24 4.48L2.24 4.48Q2.30 4.70 2.30 5.04L2.30 5.04L2.30 5.04Q2.30 5.36 2.24 5.60L2.24 5.60L1.68 5.60L1.68 5.60Q1.74 5.82 1.74 6.16L1.74 6.16L1.74 6.16Q1.74 6.48 1.68 6.72L1.68 6.72L1.68 6.72Q1.74 6.94 1.74 7.28L1.74 7.28L1.74 7.28Q1.74 7.60 1.68 7.84L1.68 7.84L1.68 7.84Q1.74 8.06 1.74 8.40L1.74 8.40L1.74 8.40Q1.74 8.72 1.68 8.96L1.68 8.96L2.24 8.96L2.24 8.96Q2.30 9.18 2.30 9.52L2.30 9.52L2.30 9.52Q2.30 9.84 2.24 10.08L2.24 10.08L3.92 10.08L3.92 10.08Q3.86 9.84 3.86 9.52L3.86 9.52L3.86 9.52Q3.86 9.18 3.92 8.96L3.92 8.96ZM9.52 8.96L10.64 8.96L10.64 8.96Q10.70 9.18 10.70 9.52L10.70 9.52L10.70 9.52Q10.70 9.84 10.64 10.08L10.64 10.08L10.08 10.08L10.08 10.08Q10.14 10.30 10.14 10.64L10.14 10.64L10.14 10.64Q10.14 10.96 10.08 11.20L10.08 11.20L7.28 11.20L7.28 11.20Q7.22 10.96 7.22 10.64L7.22 10.64L7.22 10.64Q7.22 10.30 7.28 10.08L7.28 10.08L6.72 10.08L6.72 10.08Q6.66 9.84 6.66 9.52L6.66 9.52L6.66 9.52Q6.66 9.18 6.72 8.96L6.72 8.96L6.16 8.96L6.16 8.96Q6.10 8.72 6.10 8.40L6.10 8.40L6.10 8.40Q6.10 8.06 6.16 7.84L6.16 7.84L6.16 7.84Q6.10 7.60 6.10 7.28L6.10 7.28L6.10 7.28Q6.10 6.94 6.16 6.72L6.16 6.72L6.16 6.72Q6.10 6.48 6.10 6.16L6.10 6.16L6.10 6.16Q6.10 5.82 6.16 5.60L6.16 5.60L6.72 5.60L6.72 5.60Q6.66 5.36 6.66 5.04L6.66 5.04L6.66 5.04Q6.66 4.70 6.72 4.48L6.72 4.48L7.28 4.48L7.28 4.48Q7.22 4.24 7.22 3.92L7.22 3.92L7.22 3.92Q7.22 3.58 7.28 3.36L7.28 3.36L10.08 3.36L10.08 3.36Q10.14 3.58 10.14 3.92L10.14 3.92L10.14 3.92Q10.14 4.24 10.08 4.48L10.08 4.48L10.64 4.48L10.64 4.48Q10.70 4.70 10.70 5.04L10.70 5.04L10.70 5.04Q10.70 5.36 10.64 5.60L10.64 5.60L9.52 5.60L9.52 5.60Q9.46 5.36 9.46 5.04L9.46 5.04L9.46 5.04Q9.46 4.70 9.52 4.48L9.52 4.48L7.84 4.48L7.84 4.48Q7.90 4.70 7.90 5.04L7.90 5.04L7.90 5.04Q7.90 5.36 7.84 5.60L7.84 5.60L7.28 5.60L7.28 5.60Q7.34 5.82 7.34 6.16L7.34 6.16L7.34 6.16Q7.34 6.48 7.28 6.72L7.28 6.72L7.28 6.72Q7.34 6.94 7.34 7.28L7.34 7.28L7.34 7.28Q7.34 7.60 7.28 7.84L7.28 7.84L7.28 7.84Q7.34 8.06 7.34 8.40L7.34 8.40L7.34 8.40Q7.34 8.72 7.28 8.96L7.28 8.96L7.84 8.96L7.84 8.96Q7.90 9.18 7.90 9.52L7.90 9.52L7.90 9.52Q7.90 9.84 7.84 10.08L7.84 10.08L9.52 10.08L9.52 10.08Q9.46 9.84 9.46 9.52L9.46 9.52L9.46 9.52Q9.46 9.18 9.52 8.96L9.52 8.96ZM15.12 8.96L16.24 8.96L16.24 8.96Q16.30 9.18 16.30 9.52L16.30 9.52L16.30 9.52Q16.30 9.84 16.24 10.08L16.24 10.08L15.68 10.08L15.68 10.08Q15.74 10.30 15.74 10.64L15.74 10.64L15.74 10.64Q15.74 10.96 15.68 11.20L15.68 11.20L12.88 11.20L12.88 11.20Q12.82 10.96 12.82 10.64L12.82 10.64L12.82 10.64Q12.82 10.30 12.88 10.08L12.88 10.08L12.32 10.08L12.32 10.08Q12.26 9.84 12.26 9.52L12.26 9.52L12.26 9.52Q12.26 9.18 12.32 8.96L12.32 8.96L11.76 8.96L11.76 8.96Q11.70 8.72 11.70 8.40L11.70 8.40L11.70 8.40Q11.70 8.06 11.76 7.84L11.76 7.84L11.76 7.84Q11.70 7.60 11.70 7.28L11.70 7.28L11.70 7.28Q11.70 6.94 11.76 6.72L11.76 6.72L11.76 6.72Q11.70 6.48 11.70 6.16L11.70 6.16L11.70 6.16Q11.70 5.82 11.76 5.60L11.76 5.60L12.32 5.60L12.32 5.60Q12.26 5.36 12.26 5.04L12.26 5.04L12.26 5.04Q12.26 4.70 12.32 4.48L12.32 4.48L12.88 4.48L12.88 4.48Q12.82 4.24 12.82 3.92L12.82 3.92L12.82 3.92Q12.82 3.58 12.88 3.36L12.88 3.36L15.68 3.36L15.68 3.36Q15.74 3.58 15.74 3.92L15.74 3.92L15.74 3.92Q15.74 4.24 15.68 4.48L15.68 4.48L16.24 4.48L16.24 4.48Q16.30 4.70 16.30 5.04L16.30 5.04L16.30 5.04Q16.30 5.36 16.24 5.60L16.24 5.60L15.12 5.60L15.12 5.60Q15.06 5.36 15.06 5.04L15.06 5.04L15.06 5.04Q15.06 4.70 15.12 4.48L15.12 4.48L13.44 4.48L13.44 4.48Q13.50 4.70 13.50 5.04L13.50 5.04L13.50 5.04Q13.50 5.36 13.44 5.60L13.44 5.60L12.88 5.60L12.88 5.60Q12.94 5.82 12.94 6.16L12.94 6.16L12.94 6.16Q12.94 6.48 12.88 6.72L12.88 6.72L12.88 6.72Q12.94 6.94 12.94 7.28L12.94 7.28L12.94 7.28Q12.94 7.60 12.88 7.84L12.88 7.84L12.88 7.84Q12.94 8.06 12.94 8.40L12.94 8.40L12.94 8.40Q12.94 8.72 12.88 8.96L12.88 8.96L13.44 8.96L13.44 8.96Q13.50 9.18 13.50 9.52L13.50 9.52L13.50 9.52Q13.50 9.84 13.44 10.08L13.44 10.08L15.12 10.08L15.12 10.08Q15.06 9.84 15.06 9.52L15.06 9.52L15.06 9.52Q15.06 9.18 15.12 8.96L15.12 8.96ZM21.90 8.40L21.90 8.40Q21.90 8.72 21.84 8.96L21.84 8.96L21.42 8.96L21.42 8.96Q21.48 9.18 21.48 9.52L21.48 9.52L21.48 9.52Q21.48 9.84 21.42 10.08L21.42 10.08L20.72 10.08L20.72 10.08Q20.78 10.30 20.78 10.64L20.78 10.64L20.78 10.64Q20.78 10.96 20.72 11.20L20.72 11.20L18.48 11.20L18.48 11.20Q18.42 10.96 18.42 10.64L18.42 10.64L18.42 10.64Q18.42 10.30 18.48 10.08L18.48 10.08L17.78 10.08L17.78 10.08Q17.72 9.84 17.72 9.52L17.72 9.52L17.72 9.52Q17.72 9.18 17.78 8.96L17.78 8.96L17.36 8.96L17.36 8.96Q17.30 8.72 17.30 8.40L17.30 8.40L17.30 8.40Q17.30 8.06 17.36 7.84L17.36 7.84L17.78 7.84L17.78 7.84Q17.72 7.60 17.72 7.28L17.72 7.28L17.72 7.28Q17.72 6.94 17.78 6.72L17.78 6.72L18.48 6.72L18.48 6.72Q18.42 6.48 18.42 6.16L18.42 6.16L18.42 6.16Q18.42 5.82 18.48 5.60L18.48 5.60L20.72 5.60L20.72 5.60Q20.78 5.82 20.78 6.16L20.78 6.16L20.78 6.16Q20.78 6.48 20.72 6.72L20.72 6.72L21.42 6.72L21.42 6.72Q21.48 6.94 21.48 7.28L21.48 7.28L21.48 7.28Q21.48 7.60 21.42 7.84L21.42 7.84L21.84 7.84L21.84 7.84Q21.90 8.06 21.90 8.40L21.90 8.40ZM20.30 8.96L20.72 8.96L20.72 8.96Q20.66 8.72 20.66 8.40L20.66 8.40L20.66 8.40Q20.66 8.06 20.72 7.84L20.72 7.84L20.30 7.84L20.30 7.84Q20.24 7.60 20.24 7.28L20.24 7.28L20.24 7.28Q20.24 6.94 20.30 6.72L20.30 6.72L18.90 6.72L18.90 6.72Q18.96 6.94 18.96 7.28L18.96 7.28L18.96 7.28Q18.96 7.60 18.90 7.84L18.90 7.84L18.48 7.84L18.48 7.84Q18.54 8.06 18.54 8.40L18.54 8.40L18.54 8.40Q18.54 8.72 18.48 8.96L18.48 8.96L18.90 8.96L18.90 8.96Q18.96 9.18 18.96 9.52L18.96 9.52L18.96 9.52Q18.96 9.84 18.90 10.08L18.90 10.08L20.30 10.08L20.30 10.08Q20.24 9.84 20.24 9.52L20.24 9.52L20.24 9.52Q20.24 9.18 20.30 8.96L20.30 8.96ZM27.44 4.48L27.44 4.48Q27.50 4.70 27.50 5.04L27.50 5.04L27.50 5.04Q27.50 5.36 27.44 5.60L27.44 5.60L27.44 5.60Q27.50 5.82 27.50 6.16L27.50 6.16L27.50 6.16Q27.50 6.48 27.44 6.72L27.44 6.72L27.44 6.72Q27.50 6.94 27.50 7.28L27.50 7.28L27.50 7.28Q27.50 7.60 27.44 7.84L27.44 7.84L27.44 7.84Q27.50 8.06 27.50 8.40L27.50 8.40L27.50 8.40Q27.50 8.72 27.44 8.96L27.44 8.96L27.44 8.96Q27.50 9.18 27.50 9.52L27.50 9.52L27.50 9.52Q27.50 9.84 27.44 10.08L27.44 10.08L27.44 10.08Q27.50 10.30 27.50 10.64L27.50 10.64L27.50 10.64Q27.50 10.96 27.44 11.20L27.44 11.20L26.32 11.20L26.32 11.20Q26.26 10.96 26.26 10.64L26.26 10.64L26.26 10.64Q26.26 10.30 26.32 10.08L26.32 10.08L25.90 10.08L25.90 10.08Q25.84 9.84 25.84 9.52L25.84 9.52L25.84 9.52Q25.84 9.18 25.90 8.96L25.90 8.96L26.32 8.96L26.32 8.96Q26.26 8.72 26.26 8.40L26.26 8.40L26.26 8.40Q26.26 8.06 26.32 7.84L26.32 7.84L25.90 7.84L25.90 7.84Q25.84 7.60 25.84 7.28L25.84 7.28L25.84 7.28Q25.84 6.94 25.90 6.72L25.90 6.72L26.32 6.72L26.32 6.72Q26.26 6.48 26.26 6.16L26.26 6.16L26.26 6.16Q26.26 5.82 26.32 5.60L26.32 5.60L26.32 5.60Q26.26 5.36 26.26 5.04L26.26 5.04L26.26 5.04Q26.26 4.70 26.32 4.48L26.32 4.48L26.32 4.48Q26.26 4.24 26.26 3.92L26.26 3.92L26.26 3.92Q26.26 3.58 26.32 3.36L26.32 3.36L27.44 3.36L27.44 3.36Q27.50 3.58 27.50 3.92L27.50 3.92L27.50 3.92Q27.50 4.24 27.44 4.48L27.44 4.48ZM25.68 6.16L25.68 6.16Q25.68 6.48 25.62 6.72L25.62 6.72L24.22 6.72L24.22 6.72Q24.28 6.94 24.28 7.28L24.28 7.28L24.28 7.28Q24.28 7.60 24.22 7.84L24.22 7.84L23.80 7.84L23.80 7.84Q23.86 8.06 23.86 8.40L23.86 8.40L23.86 8.40Q23.86 8.72 23.80 8.96L23.80 8.96L24.22 8.96L24.22 8.96Q24.28 9.18 24.28 9.52L24.28 9.52L24.28 9.52Q24.28 9.84 24.22 10.08L24.22 10.08L25.62 10.08L25.62 10.08Q25.68 10.30 25.68 10.64L25.68 10.64L25.68 10.64Q25.68 10.96 25.62 11.20L25.62 11.20L24.08 11.20L24.08 11.20Q24.02 10.96 24.02 10.64L24.02 10.64L24.02 10.64Q24.02 10.30 24.08 10.08L24.08 10.08L23.38 10.08L23.38 10.08Q23.32 9.84 23.32 9.52L23.32 9.52L23.32 9.52Q23.32 9.18 23.38 8.96L23.38 8.96L22.96 8.96L22.96 8.96Q22.90 8.72 22.90 8.40L22.90 8.40L22.90 8.40Q22.90 8.06 22.96 7.84L22.96 7.84L23.38 7.84L23.38 7.84Q23.32 7.60 23.32 7.28L23.32 7.28L23.32 7.28Q23.32 6.94 23.38 6.72L23.38 6.72L24.08 6.72L24.08 6.72Q24.02 6.48 24.02 6.16L24.02 6.16L24.02 6.16Q24.02 5.82 24.08 5.60L24.08 5.60L25.62 5.60L25.62 5.60Q25.68 5.82 25.68 6.16L25.68 6.16ZM33.10 7.28L33.10 7.28Q33.10 7.60 33.04 7.84L33.04 7.84L33.04 7.84Q33.10 8.06 33.10 8.40L33.10 8.40L33.10 8.40Q33.10 8.72 33.04 8.96L33.04 8.96L30.10 8.96L30.10 8.96Q30.16 9.18 30.16 9.52L30.16 9.52L30.16 9.52Q30.16 9.84 30.10 10.08L30.10 10.08L32.48 10.08L32.48 10.08Q32.54 10.30 32.54 10.64L32.54 10.64L32.54 10.64Q32.54 10.96 32.48 11.20L32.48 11.20L29.68 11.20L29.68 11.20Q29.62 10.96 29.62 10.64L29.62 10.64L29.62 10.64Q29.62 10.30 29.68 10.08L29.68 10.08L28.98 10.08L28.98 10.08Q28.92 9.84 28.92 9.52L28.92 9.52L28.92 9.52Q28.92 9.18 28.98 8.96L28.98 8.96L28.56 8.96L28.56 8.96Q28.50 8.72 28.50 8.40L28.50 8.40L28.50 8.40Q28.50 8.06 28.56 7.84L28.56 7.84L28.98 7.84L28.98 7.84Q28.92 7.60 28.92 7.28L28.92 7.28L28.92 7.28Q28.92 6.94 28.98 6.72L28.98 6.72L29.68 6.72L29.68 6.72Q29.62 6.48 29.62 6.16L29.62 6.16L29.62 6.16Q29.62 5.82 29.68 5.60L29.68 5.60L32.48 5.60L32.48 5.60Q32.54 5.82 32.54 6.16L32.54 6.16L32.54 6.16Q32.54 6.48 32.48 6.72L32.48 6.72L33.04 6.72L33.04 6.72Q33.10 6.94 33.10 7.28L33.10 7.28ZM31.92 7.84L31.92 7.84Q31.86 7.60 31.86 7.28L31.86 7.28L31.86 7.28Q31.86 6.94 31.92 6.72L31.92 6.72L30.10 6.72L30.10 6.72Q30.16 6.94 30.16 7.28L30.16 7.28L30.16 7.28Q30.16 7.60 30.10 7.84L30.10 7.84L31.92 7.84ZM38.64 6.72L38.64 6.72Q38.70 6.94 38.70 7.28L38.70 7.28L38.70 7.28Q38.70 7.60 38.64 7.84L38.64 7.84L37.52 7.84L37.52 7.84Q37.46 7.60 37.46 7.28L37.46 7.28L37.46 7.28Q37.46 6.94 37.52 6.72L37.52 6.72L36.54 6.72L36.54 6.72Q36.60 6.94 36.60 7.28L36.60 7.28L36.60 7.28Q36.60 7.60 36.54 7.84L36.54 7.84L36.12 7.84L36.12 7.84Q36.18 8.06 36.18 8.40L36.18 8.40L36.18 8.40Q36.18 8.72 36.12 8.96L36.12 8.96L36.12 8.96Q36.18 9.18 36.18 9.52L36.18 9.52L36.18 9.52Q36.18 9.84 36.12 10.08L36.12 10.08L36.96 10.08L36.96 10.08Q37.02 10.30 37.02 10.64L37.02 10.64L37.02 10.64Q37.02 10.96 36.96 11.20L36.96 11.20L34.16 11.20L34.16 11.20Q34.10 10.96 34.10 10.64L34.10 10.64L34.10 10.64Q34.10 10.30 34.16 10.08L34.16 10.08L35 10.08L35 10.08Q34.94 9.84 34.94 9.52L34.94 9.52L34.94 9.52Q34.94 9.18 35 8.96L35 8.96L35 8.96Q34.94 8.72 34.94 8.40L34.94 8.40L34.94 8.40Q34.94 8.06 35 7.84L35 7.84L35 7.84Q34.94 7.60 34.94 7.28L34.94 7.28L34.94 7.28Q34.94 6.94 35 6.72L35 6.72L34.16 6.72L34.16 6.72Q34.10 6.48 34.10 6.16L34.10 6.16L34.10 6.16Q34.10 5.82 34.16 5.60L34.16 5.60L35.56 5.60L35.56 5.60Q35.62 5.82 35.62 6.16L35.62 6.16L35.62 6.16Q35.62 6.48 35.56 6.72L35.56 6.72L36.12 6.72L36.12 6.72Q36.06 6.48 36.06 6.16L36.06 6.16L36.06 6.16Q36.06 5.82 36.12 5.60L36.12 5.60L38.22 5.60L38.22 5.60Q38.28 5.82 38.28 6.16L38.28 6.16L38.28 6.16Q38.28 6.48 38.22 6.72L38.22 6.72L38.64 6.72Z"></path></g><!----><!----></svg>